<svg width="56" height="56" viewBox="0 0 56 56" fill="none" xmlns="http://www.w3.org/2000/svg">
<path d="M28.9306 47.8087C27.9588 47.8087 27.1894 47.0798 27.0679 46.189C26.096 45.6625 25.3671 44.6502 25.2051 43.5568C25.0027 42.3825 25.3671 41.2487 26.1365 40.4388C25.3266 39.7504 24.8812 38.738 24.8812 37.6447C24.8812 36.6323 25.2861 35.6605 26.0555 34.9721C25.2051 34.1622 24.7597 33.0283 24.9217 31.8135C25.1242 30.1532 26.4605 28.8169 28.1207 28.574C29.2951 28.412 30.4289 28.8574 31.2388 29.6673C31.9272 28.9384 32.8991 28.5335 33.9114 28.5335C34.9238 28.5335 35.8551 28.9384 36.5435 29.6673C37.2319 28.9384 38.2038 28.5335 39.1757 28.5335C39.6616 28.5335 40.3905 28.7359 41.3219 29.2219C41.3219 29.2219 41.4029 29.2624 41.4434 29.2219C41.4838 29.1814 41.4838 29.1004 41.4434 29.1004C40.9979 28.169 40.755 27.4401 40.755 26.9542C40.755 25.9418 41.1599 25.0105 41.8888 24.2816C41.1599 23.5932 40.755 22.6213 40.755 21.6089C40.755 20.5966 41.1599 19.6652 41.8888 18.9363C41.1599 18.2479 40.755 17.276 40.755 16.2637C40.755 16.0612 40.7954 15.6968 41.1194 14.6034C41.2004 14.3605 41.0384 14.1985 40.9979 14.158C40.8764 14.0365 40.7145 13.996 40.5525 14.077C39.1757 14.6034 38.6897 14.6844 38.4873 14.6844C37.5559 14.6844 36.665 14.32 35.9766 13.7126C35.2882 14.5224 34.2354 15.0489 33.142 15.0489C32.1702 15.0489 31.1983 14.6439 30.5099 13.9555C29.8215 14.6844 28.8496 15.0894 27.8373 15.0894C26.8249 15.0894 25.8935 14.6844 25.2051 13.996C24.5167 14.7249 23.5449 15.1299 22.5325 15.1299C21.5202 15.1299 20.5888 14.7249 19.9004 13.996C19.212 14.7249 18.2401 15.1299 17.2278 15.1299C16.8633 15.1299 16.4179 15.0084 15.77 14.8059C15.527 14.7249 15.3245 14.8869 15.284 14.9274C15.2435 14.9679 15.0816 15.1703 15.2031 15.4133C15.4865 16.1017 15.6485 16.6686 15.6485 17.0331C15.6485 17.9645 15.284 18.8553 14.6766 19.5437C15.5675 20.2726 16.0534 21.3255 16.0534 22.4998C16.0534 23.5527 15.608 24.565 14.8791 25.2939C15.6485 26.0228 16.0939 27.0352 16.0939 28.088C16.0939 30.2342 14.3527 31.9755 12.2065 31.9755C10.0603 31.9755 8.31903 30.2342 8.31903 28.088C8.31903 27.0352 8.76446 26.0228 9.49336 25.2939C8.72397 24.565 8.27853 23.5527 8.27853 22.4998C8.27853 21.447 8.68347 20.4751 9.41237 19.7462C8.64298 19.0578 8.23804 18.0859 8.23804 17.0331C8.23804 16.0207 8.64298 15.0894 9.37188 14.3605L9.33138 14.32C8.481 13.4696 8.11655 12.2953 8.27853 11.0804C8.481 9.62263 9.73633 8.3673 11.2751 8.12434C12.4494 7.92187 13.5833 8.28632 14.3932 9.05571C15.0816 8.24582 16.0939 7.80038 17.1873 7.80038C18.1996 7.80038 19.131 8.20533 19.8194 8.93422C20.5078 8.20533 21.4797 7.80038 22.492 7.80038C23.5044 7.80038 24.4358 8.20533 25.1242 8.89373C25.8126 8.16483 26.7844 7.7194 27.7968 7.7194C28.7686 7.7194 29.7 8.12434 30.3884 8.81274C31.0768 8.04335 32.0487 7.59791 33.1015 7.59791C34.0329 7.59791 34.9238 7.96236 35.6122 8.56978C36.3006 7.75989 37.3129 7.31445 38.4063 7.31445C39.4186 7.31445 40.35 7.7194 41.0384 8.44829C41.7673 7.7194 42.7392 7.31445 43.7515 7.31445H43.792C45.8167 7.31445 47.477 8.97472 47.477 10.9994C47.477 11.8498 47.1935 12.7002 46.6266 13.3481C47.558 14.0365 48.1249 15.1299 48.1249 16.3042C48.1249 17.3165 47.72 18.2479 46.9911 18.9768C47.72 19.6652 48.1249 20.6371 48.1249 21.6494C48.1249 22.6618 47.72 23.5932 46.9911 24.3221C47.72 25.0105 48.1249 25.9823 48.1249 26.9947C48.1249 28.007 47.72 28.9384 46.9911 29.6673C47.801 30.4772 48.2464 31.611 48.0844 32.7854C47.8819 34.4456 46.5456 35.7819 44.8854 35.9844C43.711 36.1464 42.5772 35.701 41.7673 34.8911C41.0789 35.62 40.107 36.0249 39.1352 36.0249C38.1228 36.0249 37.151 35.62 36.4626 34.8911C35.7742 35.62 34.8023 36.0249 33.8304 36.0249C33.628 36.0249 33.223 35.9844 32.2107 35.539C32.0082 35.458 31.8462 35.5795 31.8057 35.62C31.7652 35.6605 31.6437 35.8224 31.7247 36.0654C32.1702 37.0778 32.2512 37.4827 32.2512 37.7257C32.2512 38.657 31.8867 39.5479 31.2793 40.2363C32.0892 40.9247 32.5751 41.9371 32.5751 43.0304C32.5751 44.0023 32.1702 44.9336 31.4818 45.6625C31.2793 45.865 31.0768 46.027 30.8339 46.189C30.7124 47.0394 29.9025 47.8087 28.9306 47.8087ZM28.5257 29.4648C28.4042 29.4648 28.2827 29.4648 28.1612 29.5053C26.9059 29.6673 25.934 30.6797 25.7721 31.8945C25.6506 32.9473 26.096 33.9597 26.9869 34.5266L27.5538 34.9316L26.9869 35.3365C26.2175 35.8629 25.7721 36.7133 25.7721 37.6447C25.7721 38.6165 26.258 39.5074 27.1084 39.9933L27.6753 40.3578L27.1489 40.7627C27.0274 40.8437 26.9464 40.9247 26.9059 41.0057C26.258 41.6536 25.9745 42.5445 26.1365 43.4354C26.2985 44.3262 26.9059 45.0956 27.7158 45.5006L27.9993 45.6221V45.9865C27.9993 46.5129 28.4447 46.9584 28.9711 46.9584C29.4975 46.9584 29.943 46.5129 29.943 45.9865V45.5816L30.1859 45.4601C30.4289 45.3386 30.6719 45.1766 30.8339 44.9741C31.3603 44.4477 31.6437 43.7593 31.6437 43.0304C31.6437 42.0586 31.1578 41.1677 30.3074 40.6817L29.7405 40.3173L30.2669 39.9124C30.9553 39.3859 31.3198 38.576 31.3198 37.7257C31.3198 37.6447 31.2793 37.3207 30.8743 36.4298C30.6314 35.9439 30.7529 35.3365 31.1578 34.9721C31.5223 34.5671 32.0892 34.4861 32.6156 34.6886C33.466 35.053 33.7494 35.0935 33.8709 35.0935C34.7618 35.0935 35.6122 34.6481 36.1386 33.9192L36.503 33.3928L36.8675 33.9192C37.3939 34.6481 38.2443 35.0935 39.1352 35.0935C40.0261 35.0935 40.8764 34.6481 41.4029 33.9192L41.7673 33.3928L42.1318 33.9192C42.7392 34.7696 43.7515 35.215 44.7639 35.0935C45.9787 34.9316 46.9911 33.9192 47.153 32.7044C47.2745 31.692 46.8291 30.6797 45.9787 30.0722L45.4523 29.5863L45.9787 29.2219C46.7076 28.6954 47.153 27.8451 47.153 26.9542C47.153 26.0633 46.7076 25.2129 45.9787 24.6865L45.4523 24.3221L45.9787 23.9576C46.7076 23.4312 47.153 22.5808 47.153 21.6899C47.153 20.7991 46.7076 19.9487 45.9787 19.4222L45.4523 19.0578L45.9787 18.6933C46.7076 18.1669 47.153 17.3165 47.153 16.4257C47.153 15.3728 46.5861 14.4414 45.6548 13.9555L45.0473 13.6316L45.5738 13.1861C46.1812 12.6597 46.5051 11.8903 46.5051 11.1209C46.5051 9.58213 45.2498 8.3673 43.7515 8.3673H43.711C42.8202 8.3673 41.9698 8.81274 41.4434 9.54164L41.0789 10.0681L40.7145 9.42016C40.188 8.69126 39.3377 8.24582 38.4468 8.24582C37.4749 8.24582 36.584 8.73175 36.0981 9.58213L35.7337 10.1491L35.3287 9.62263C35.2477 9.50114 35.1667 9.42016 35.0857 9.37966C34.5593 8.85324 33.8709 8.56978 33.142 8.56978C32.2107 8.56978 31.3603 9.05571 30.8339 9.8251L30.4694 10.392L30.0645 9.86559C29.538 9.1367 28.6877 8.73175 27.8373 8.73175C26.9059 8.73175 26.0555 9.17719 25.5696 9.94658L25.2051 10.5135L24.8002 9.98708C24.2738 9.25818 23.4234 8.81274 22.5325 8.81274C21.6416 8.81274 20.7913 9.25818 20.2648 9.98708L19.9004 10.5135L19.5359 9.98708C19.0095 9.25818 18.1591 8.81274 17.2683 8.81274C16.2964 8.81274 15.4055 9.29867 14.9196 10.1491L14.5551 10.716L14.1502 10.1895C14.0692 10.0681 13.9882 9.98708 13.9072 9.94658C13.2593 9.29867 12.3685 9.01521 11.4776 9.17719C10.2628 9.21768 9.33138 10.1491 9.16941 11.3234C9.00743 12.2143 9.29089 13.1051 9.9388 13.753C10.0603 13.8745 10.1818 13.9555 10.3032 14.077L10.8297 14.4414L10.3032 14.8059C9.57435 15.3323 9.12891 16.1827 9.12891 17.0736C9.12891 18.0049 9.61484 18.8553 10.3842 19.3818L10.9512 19.7462L10.4247 20.1511C9.65534 20.7181 9.2099 21.6089 9.2099 22.5403C9.2099 23.5122 9.69583 24.403 10.4652 24.97L10.9916 25.3344L10.4652 25.6989C9.69583 26.2658 9.2099 27.1567 9.2099 28.1285C9.2099 29.7483 10.5462 31.0846 12.166 31.0846C13.7858 31.0846 15.1221 29.7483 15.1221 28.1285C15.1221 27.1567 14.6361 26.2658 13.8667 25.6989L13.3403 25.3344L13.8667 24.97C14.6361 24.403 15.1221 23.5122 15.1221 22.5403C15.1221 21.4875 14.5956 20.5561 13.7048 20.0297L13.1378 19.6652L13.6643 19.2603C14.3527 18.7338 14.7171 17.924 14.7171 17.0736C14.7171 16.9116 14.6766 16.5472 14.3527 15.7778C14.1502 15.2513 14.2717 14.6844 14.6361 14.32C15.0006 13.915 15.5675 13.7935 16.0939 13.9555C16.7418 14.1985 17.0658 14.239 17.2278 14.239C18.1186 14.239 18.969 13.7935 19.4955 13.0646L19.8599 12.5382L20.2243 13.0646C20.7508 13.7935 21.6012 14.239 22.492 14.239C23.4234 14.239 24.2738 13.7935 24.7597 13.0241L25.1242 12.4572L25.5291 12.9837C26.0555 13.7126 26.9059 14.158 27.7968 14.158C28.7281 14.158 29.5785 13.7126 30.105 12.9432L30.4694 12.3762L30.8743 12.9027C31.4008 13.6316 32.2512 14.077 33.142 14.077C34.1139 14.077 35.0453 13.5506 35.5312 12.7002L35.8956 12.1333L36.3006 12.6597C36.827 13.3481 37.6369 13.7126 38.4873 13.7126C38.5683 13.7126 38.9732 13.6721 40.2285 13.1861C40.7145 12.9837 41.2814 13.1051 41.6458 13.4291C42.0508 13.7935 42.1723 14.32 42.0508 14.8059C41.7673 15.8183 41.7268 16.1422 41.7268 16.2232C41.7268 17.1141 42.1723 17.9645 42.9011 18.4909L43.4276 18.8553L42.9011 19.2198C42.1723 19.7462 41.7268 20.5966 41.7268 21.4875C41.7268 22.3783 42.1723 23.2287 42.9011 23.7551L43.4276 24.1196L42.9011 24.484C42.1723 25.0105 41.7268 25.8608 41.7268 26.7517C41.7268 26.9542 41.8078 27.4401 42.3342 28.493C42.5367 28.8979 42.4557 29.3433 42.1318 29.6673C41.8078 29.9913 41.3624 30.0722 40.9574 29.8698C39.9046 29.3838 39.4186 29.3029 39.2162 29.3029C38.3253 29.3029 37.4749 29.7483 36.9485 30.4772L36.4626 31.2061L36.0981 30.6797C35.5717 29.9508 34.7213 29.5053 33.8304 29.5053C32.9396 29.5053 32.0892 29.9508 31.5627 30.6797L31.1578 31.2061L30.7934 30.6797C30.2669 29.9103 29.4166 29.4648 28.5257 29.4648Z" fill="#2A2A2A" stroke="#2A2A2A" stroke-width="0.260417"/>
</svg>
