<svg width="56" height="56" viewBox="0 0 56 56" fill="none" xmlns="http://www.w3.org/2000/svg">
<path d="M12.6483 4.46323C12.6077 4.28605 12.7185 4.10953 12.8956 4.06898C13.0728 4.02843 13.2493 4.13918 13.2899 4.31635C13.6957 6.08191 14.4358 9.82677 14.6893 13.0608C14.8547 15.1696 14.8116 17.0773 14.3358 18.1284C13.7124 19.5057 12.7304 20.6935 11.7414 21.8898C11.6296 22.0251 11.5176 22.1605 11.4061 22.2963C14.2347 24.1142 17.5657 25.4367 21.2315 25.9953C24.5968 26.5081 28.2442 26.377 32.0441 25.3948C31.9767 24.5519 31.8574 23.7157 31.6642 22.8899C31.4051 21.7826 31.1136 20.7378 30.8222 19.693C29.8064 16.0514 28.7908 12.4096 29.2512 6.83527C28.7522 6.98816 28.1779 7.11382 27.5156 7.20976C27.3356 7.23537 27.1689 7.1102 27.1432 6.93018C27.1176 6.75016 27.2428 6.58345 27.4228 6.55784C28.9212 6.34078 29.9169 5.97284 30.5853 5.48391C31.2291 5.01303 31.5727 4.41974 31.7787 3.7354C31.8306 3.56107 32.0141 3.46186 32.1884 3.5138C32.3627 3.56574 32.4619 3.74917 32.41 3.9235C32.1651 4.73723 31.7524 5.4457 30.9744 6.01474C30.6817 6.22889 30.3378 6.42176 29.932 6.59128C29.4197 12.2169 30.4378 15.8674 31.4561 19.5177C31.7528 20.5813 32.0495 21.645 32.3058 22.7405C32.9764 25.6062 32.7885 28.5464 32.6021 31.4631L32.5822 31.7746C32.2888 36.3938 31.3876 41.4682 30.5223 46.3403C30.1874 48.226 29.8578 50.0818 29.5827 51.7906C29.5543 51.97 29.3858 52.0922 29.2065 52.0638C29.0272 52.0353 28.9049 51.8669 28.9334 51.6876C29.2262 49.8687 29.547 48.0623 29.873 46.2269C30.4131 43.1857 30.9672 40.0655 31.3775 37.0348C31.331 37.0114 31.2894 36.9766 31.2573 36.9311C30.2867 35.5605 29.0393 34.5063 27.645 33.7894C26.0222 32.955 24.2003 32.579 22.3848 32.6944C20.5685 32.8098 18.7595 33.4164 17.163 34.5469C15.8009 35.5115 14.5909 36.8597 13.6595 38.6123C14.5936 40.2647 15.5057 45.8524 16.0835 49.3927C16.2388 50.3437 16.3696 51.1452 16.4694 51.6786C16.5028 51.8572 16.3851 52.0291 16.2065 52.0625C16.0279 52.0959 15.856 51.9783 15.8226 51.7997C15.7225 51.2643 15.5906 50.4566 15.4342 49.4983C14.8448 45.8872 13.9022 40.1123 13.0196 38.8249C13.013 38.8162 13.0069 38.8072 13.0012 38.798C12.5012 38.0861 11.9216 37.4829 11.3419 36.8797C9.62965 35.0977 7.91734 33.3156 7.87621 28.6211L7.87614 28.6185C7.82443 25.5937 9.53943 23.5192 11.2338 21.4698C12.195 20.3072 13.1493 19.1528 13.7354 17.8579C14.1593 16.9214 14.19 15.1243 14.0323 13.1123C13.7814 9.91245 13.0495 6.20901 12.6483 4.46323ZM47.7371 27.0233H43.529V28.4824C43.529 28.6645 43.3813 28.8122 43.1992 28.8122C43.1161 28.8122 43.0402 28.7815 42.9822 28.7308L38.4577 25.1634C38.3147 25.051 38.2899 24.8439 38.4023 24.7009C38.4202 24.6781 38.4406 24.6583 38.4627 24.6416L42.9956 21.0675C43.1386 20.9551 43.3457 20.9799 43.4581 21.1229C43.5056 21.1833 43.5286 21.2552 43.5286 21.3265H43.529V22.7856H47.7371C47.9192 22.7856 48.0669 22.9333 48.0669 23.1155V26.6934C48.0669 26.8756 47.9192 27.0233 47.7371 27.0233ZM43.1992 26.3636H47.4072V23.4453H43.1992C43.017 23.4453 42.8693 23.2976 42.8693 23.1155V22.006L39.1933 24.9045L42.8693 27.8029V26.6934C42.8693 26.5113 43.017 26.3636 43.1992 26.3636ZM30.9836 7.86612L30.9619 7.74876C30.9381 7.61792 30.9152 7.48708 30.8929 7.35597L30.8709 7.22333L30.2199 7.32971C30.2348 7.41998 30.25 7.51014 30.2654 7.60029L30.289 7.73431L30.313 7.86745L30.335 7.98637L30.9836 7.86612ZM33.8331 32.4625C33.9688 32.2894 34.1048 32.1165 34.2405 31.9433L33.7212 31.5366C33.5856 31.7096 33.4498 31.8823 33.3141 32.0553L33.8331 32.4625ZM35.4456 30.3541C35.5592 30.1944 35.6702 30.0338 35.7788 29.8707L35.8255 29.7998L35.2735 29.4387C35.1549 29.6192 35.0327 29.7965 34.9075 29.9725L35.4456 30.3541ZM36.7711 27.9786L36.7818 27.949L36.7963 27.9079L36.8106 27.8666L36.8246 27.8253L36.8383 27.7839L36.8518 27.7424L36.8649 27.7008L36.8778 27.6591L36.8904 27.6172L36.9027 27.5753L36.9147 27.5333L36.9264 27.4911L36.9378 27.4489L36.9489 27.4065L36.9598 27.364L36.9725 27.312L36.3305 27.1608L36.3199 27.2035L36.3103 27.2413L36.3004 27.2791L36.2902 27.3168L36.2797 27.3544L36.269 27.392L36.258 27.4294L36.2468 27.4668L36.2353 27.5041L36.2235 27.5413L36.2115 27.5785L36.1992 27.6156L36.1866 27.6527L36.1738 27.6897L36.1607 27.7267L36.15 27.7563L36.7711 27.9786ZM37.1213 25.2433L37.1174 25.1952L37.113 25.1445L37.1083 25.0936L37.1032 25.0424L37.0978 24.9911L37.0921 24.9394L37.086 24.8876L37.0796 24.8355L37.0729 24.7831L37.0658 24.7306L37.0584 24.6777L37.0507 24.6246L37.0415 24.5639L36.39 24.6678L36.3982 24.7215L36.4054 24.771L36.4123 24.8202L36.4189 24.8691L36.4251 24.9177L36.431 24.9661L36.4366 25.0141L36.4419 25.0619L36.4469 25.1094L36.4516 25.1566L36.456 25.2035L36.46 25.2502L36.4639 25.2983L37.1213 25.2433ZM36.5683 22.5952L36.5442 22.5183L36.5237 22.4537L36.5028 22.3887L36.4815 22.3233L36.4599 22.2575L36.4379 22.1914L36.4156 22.1249L36.3929 22.058L36.3587 21.9586L35.7356 22.1752L35.7685 22.2709L35.7905 22.3358L35.8122 22.4004L35.8336 22.4646L35.8545 22.5283L35.8751 22.5916L35.8953 22.6545L35.9152 22.7171L35.9386 22.7917L36.5683 22.5952ZM35.6407 20.093C35.5554 19.8887 35.4688 19.6852 35.3808 19.482L34.7757 19.7445C34.8625 19.945 34.948 20.146 35.0322 20.3476L35.6407 20.093ZM34.5624 17.6708C34.4724 17.4707 34.3758 17.2711 34.2826 17.0723L33.6854 17.3524C33.7783 17.5506 33.8746 17.7496 33.9643 17.9491L34.5624 17.6708ZM33.4498 15.2814C33.3592 15.0823 33.2694 14.8829 33.1808 14.6828L32.5775 14.9497C32.667 15.1517 32.7578 15.3532 32.8493 15.5544L33.4498 15.2814ZM32.4246 12.8711C32.3459 12.6682 32.2692 12.4646 32.1945 12.2602L31.5745 12.4854C31.6506 12.6941 31.7291 12.902 31.8093 13.1092L32.4246 12.8711ZM31.5858 10.4013C31.5255 10.1927 31.4675 9.98332 31.4123 9.77326L30.7741 9.93999C30.8306 10.1553 30.8901 10.3698 30.9518 10.5836L31.5858 10.4013ZM31.4935 36.1489C31.6838 34.6435 31.8342 33.1647 31.9251 31.7333L31.945 31.4219C32.02 30.2485 32.0952 29.0712 32.1135 27.8997C28.2731 28.8717 24.3781 28.9382 20.7495 28.3606C16.6371 27.706 12.8657 26.2234 9.90295 24.2942C9.08456 25.5558 8.50467 26.9377 8.53322 28.6082L8.53323 28.6114C8.57106 33.0465 10.1936 34.7351 11.8161 36.4236C12.3011 36.9283 12.7861 37.4331 13.2372 38.013C14.1956 36.3079 15.4161 34.9798 16.7843 34.0109C18.4853 32.8063 20.4112 32.16 22.3435 32.0373C24.2765 31.9145 26.217 32.3152 27.9465 33.2045C29.2903 33.8954 30.5068 34.8823 31.4935 36.1489ZM32.1172 27.2185C32.1153 26.8327 32.1059 26.4478 32.0871 26.064C28.2399 27.0414 24.5458 27.1672 21.1336 26.6472C17.3462 26.0701 13.9061 24.6974 10.989 22.8106C10.7427 23.1194 10.5023 23.4317 10.2743 23.7505C13.1631 25.6288 16.8405 27.0727 20.8526 27.7113C24.4487 28.2836 28.3127 28.2084 32.1172 27.2185Z" fill="#2A2A2A" stroke="#2A2A2A" stroke-width="0.434028"/>
</svg>
