<svg width="56" height="56" viewBox="0 0 56 56" fill="none" xmlns="http://www.w3.org/2000/svg">
<path d="M35.9502 8.7671C32.8696 8.76032 29.8662 9.73014 27.3714 11.5372C25.1787 9.9509 22.5903 9.00135 19.892 8.79341C17.1937 8.58548 14.4904 9.12726 12.0806 10.3589C9.67081 11.5906 7.64825 13.4643 6.23625 15.773C4.82424 18.0818 4.07772 20.7359 4.0791 23.4422C4.0791 34.9445 26.1253 48.3639 27.0838 48.8815C27.1645 48.9312 27.2574 48.9577 27.3522 48.9582C27.4498 48.9567 27.5455 48.9303 27.6302 48.8815C28.5887 48.3064 50.6348 34.7816 50.6348 23.4422C50.6272 19.5508 49.0774 15.8211 46.3248 13.0703C43.5723 10.3196 39.8416 8.77216 35.9502 8.7671ZM35.9502 9.81189C39.5678 9.81188 43.0377 11.247 45.5984 13.8024C48.1592 16.3577 49.6016 19.8246 49.6092 23.4422C49.6092 33.6888 30.0169 46.1497 27.3714 47.8271C24.7258 46.1497 5.14307 33.6888 5.14307 23.4422C5.14307 19.8238 6.57981 16.3534 9.13751 13.7939C11.6952 11.2344 15.1645 9.79526 18.7829 9.79272C21.7852 9.77952 24.7063 10.7678 27.0838 12.6012C27.1744 12.6712 27.2856 12.7091 27.4001 12.7091C27.5146 12.7091 27.6258 12.6712 27.7164 12.6012C30.0754 10.7812 32.9707 9.79367 35.9502 9.79272V9.81189Z" fill="#2A2A2A" stroke="#2A2A2A" stroke-width="0.434028"/>
<path d="M10.6258 19.7526C10.7003 19.7898 10.7823 19.8094 10.8655 19.8101C10.9617 19.811 11.0563 19.7856 11.1391 19.7366C11.2219 19.6876 11.2897 19.6169 11.3352 19.5321C12.0451 18.1705 13.1148 17.0297 14.4279 16.2337C15.7411 15.4377 17.2474 15.017 18.7829 15.0175C18.9211 15.0175 19.0538 14.9633 19.1524 14.8664C19.251 14.7696 19.3076 14.638 19.3101 14.4998C19.3101 14.36 19.2546 14.2259 19.1557 14.1271C19.0568 14.0282 18.9227 13.9727 18.7829 13.9727C17.0568 13.9732 15.3637 14.4459 13.8871 15.3397C12.4104 16.2335 11.2064 17.5143 10.4054 19.0433C10.3532 19.1724 10.3532 19.3167 10.4054 19.4459C10.4422 19.57 10.5199 19.6781 10.6258 19.7526Z" fill="#2A2A2A" stroke="#2A2A2A" stroke-width="0.434028"/>
<path d="M9.83042 23.9593C9.9677 23.9593 10.0994 23.9048 10.1964 23.8077C10.2935 23.7107 10.348 23.579 10.348 23.4417C10.3491 22.6805 10.4523 21.9229 10.6548 21.1892C10.6902 21.0558 10.6719 20.9138 10.6038 20.7937C10.5357 20.6736 10.4232 20.585 10.2905 20.547C10.2251 20.5283 10.1567 20.5228 10.0892 20.5311C10.0216 20.5393 9.95648 20.561 9.89752 20.5949C9.83695 20.6283 9.78369 20.6735 9.74089 20.7278C9.69808 20.7822 9.6666 20.8445 9.6483 20.9112C9.41838 21.735 9.30227 22.5864 9.30323 23.4417C9.30574 23.5799 9.3624 23.7115 9.46099 23.8083C9.55959 23.9051 9.69225 23.9594 9.83042 23.9593Z" fill="#2A2A2A" stroke="#2A2A2A" stroke-width="0.434028"/>
<path d="M26.8826 17.2105L22.0324 33.0838L17.7095 22.3482C17.6691 22.2538 17.6025 22.1728 17.5176 22.1151C17.4326 22.0573 17.3329 22.0251 17.2302 22.0223C17.1301 22.0202 17.0316 22.0472 16.9465 22.0999C16.8615 22.1527 16.7935 22.2289 16.7509 22.3195L13.5782 28.895H8.55551C8.41569 28.895 8.28159 28.9505 8.18273 29.0494C8.08386 29.1483 8.02832 29.2824 8.02832 29.4222C8.03083 29.5603 8.08748 29.692 8.18608 29.7888C8.28467 29.8856 8.41733 29.9398 8.55551 29.9398H13.9041C14.0025 29.9401 14.099 29.9122 14.1822 29.8596C14.2654 29.807 14.3318 29.7317 14.3738 29.6426L17.1823 23.8244L21.6203 34.8379C21.6579 34.9361 21.7252 35.0203 21.8128 35.0787C21.9004 35.137 22.0039 35.1668 22.1091 35.1638C22.2174 35.1572 22.3212 35.118 22.4067 35.0512C22.4923 34.9845 22.5556 34.8934 22.5884 34.7899L27.381 19.1468L32.1737 34.7899C32.2064 34.8934 32.2697 34.9845 32.3553 35.0512C32.4408 35.118 32.5446 35.1572 32.6529 35.1638C32.7559 35.1622 32.8562 35.1305 32.9414 35.0726C33.0265 35.0147 33.0929 34.9331 33.1322 34.8379L37.6277 23.834L40.4362 29.6522C40.4781 29.7413 40.5446 29.8166 40.6278 29.8692C40.7109 29.9218 40.8074 29.9496 40.9058 29.9494H46.2544C46.3917 29.9494 46.5234 29.8948 46.6204 29.7978C46.7175 29.7007 46.772 29.569 46.772 29.4318C46.7733 29.3625 46.7609 29.2937 46.7356 29.2293C46.7103 29.1648 46.6725 29.106 46.6244 29.0562C46.5764 29.0063 46.519 28.9664 46.4555 28.9388C46.392 28.9111 46.3237 28.8962 46.2544 28.895H41.2317L38.059 22.3099C38.0138 22.2193 37.944 22.1434 37.8575 22.0908C37.771 22.0382 37.6714 22.0112 37.5702 22.0128C37.4682 22.0137 37.3689 22.0453 37.2851 22.1034C37.2014 22.1615 37.137 22.2435 37.1005 22.3387L32.7679 33.0742L27.9753 17.2009C27.9369 17.0985 27.8671 17.0109 27.7758 16.9506C27.6846 16.8903 27.5765 16.8605 27.4673 16.8655C27.3444 16.8407 27.2168 16.8623 27.1088 16.926C27.0009 16.9897 26.9203 17.091 26.8826 17.2105Z" fill="#2A2A2A" stroke="#2A2A2A" stroke-width="0.434028"/>
</svg>
