<svg width="56" height="56" viewBox="0 0 56 56" fill="none" xmlns="http://www.w3.org/2000/svg">
<path d="M18.0424 25.9306C16.9355 25.9306 16.1655 25.4494 15.7324 25.1125C14.6255 24.15 14.1924 22.4175 14.6255 20.7812C15.1068 19.0969 16.3099 17.7975 17.4649 16.6906C20.7374 13.6587 21.3149 13.0812 21.3149 4.46687C21.3149 4.17812 21.5555 3.9375 21.8443 3.9375C22.133 3.9375 22.3736 4.17812 22.3736 4.46687C22.3736 13.3219 21.6999 14.1881 18.1868 17.5087C17.128 18.4712 16.0211 19.6744 15.6361 21.07C15.2993 22.2731 15.588 23.5725 16.4061 24.2462C17.1761 24.92 18.3311 24.9681 19.7268 24.3906C20.0636 24.2462 20.593 23.9575 21.1705 23.6206C22.9511 22.61 25.6461 21.1181 28.0524 21.1181C30.4105 21.1181 33.0093 22.5619 34.8861 23.6206C35.4636 23.9575 35.9449 24.1981 36.3299 24.3906C37.7255 24.9681 38.8805 24.9681 39.6505 24.2462C40.4686 23.5725 40.7574 22.2731 40.4205 21.07C40.0355 19.6262 38.9286 18.4712 37.8699 17.5087C34.3568 14.1881 33.683 13.3219 33.683 4.46687C33.7311 4.17812 33.9718 3.9375 34.2605 3.9375C34.5493 3.9375 34.7899 4.17812 34.7899 4.46687C34.7899 13.0812 35.3674 13.6587 38.6399 16.6906C39.7949 17.7494 41.0461 19.0969 41.4792 20.7812C41.9124 22.3694 41.4792 24.15 40.3724 25.1125C39.7467 25.69 38.303 26.46 35.8968 25.4494C35.5118 25.2569 34.9824 24.9681 34.3568 24.6312C32.6724 23.7169 30.1218 22.2731 28.0524 22.2731C25.983 22.2731 23.4324 23.6687 21.6999 24.6312C21.0743 24.9681 20.593 25.2569 20.1599 25.4494C19.3899 25.7862 18.6199 25.9306 18.0424 25.9306Z" fill="#2A2A2A" stroke="#2A2A2A" stroke-width="0.260417"/>
<path d="M34.2605 52.0617C33.9718 52.0617 33.7311 51.8211 33.7311 51.5323C33.7311 42.6773 34.4049 41.8111 37.918 38.4905C38.9767 37.528 40.0836 36.3248 40.4686 34.9292C40.8055 33.7261 40.5167 32.4267 39.6986 31.753C38.9286 31.0792 37.7736 31.0311 36.378 31.6086C36.0411 31.753 35.5118 32.0417 34.9343 32.3786C33.0574 33.4373 30.4586 34.8811 28.0524 34.8811C25.6943 34.8811 22.9993 33.3892 21.1705 32.3786C20.593 32.0417 20.1118 31.8011 19.7268 31.6086C18.3311 31.0311 17.1761 31.0311 16.4061 31.753C15.588 32.4267 15.2993 33.7261 15.6361 34.9292C16.0211 36.373 17.128 37.528 18.1868 38.4905C21.6999 41.8111 22.3736 42.6773 22.3736 51.5323C22.3736 51.8211 22.133 52.0617 21.8443 52.0617C21.5555 52.0617 21.3149 51.8211 21.3149 51.5323C21.3149 42.8698 20.7374 42.3405 17.4649 39.3086C16.3099 38.2498 15.0586 36.9023 14.6255 35.218C14.1924 33.6298 14.6255 31.8492 15.7324 30.8867C16.358 30.3092 17.8018 29.5392 20.208 30.5498C20.593 30.7423 21.1224 31.0311 21.748 31.368C23.4324 32.2823 25.983 33.7261 28.1005 33.7261C30.1699 33.7261 32.7205 32.3305 34.4049 31.368C35.0305 31.0311 35.5118 30.7423 35.9449 30.5498C38.3511 29.4911 39.7949 30.3092 40.4205 30.8867C41.5274 31.8492 41.9605 33.5817 41.5274 35.218C41.0461 36.9023 39.843 38.2017 38.688 39.3086C35.4155 42.3405 34.838 42.918 34.838 51.5323C34.838 51.8211 34.5974 52.0617 34.2605 52.0617Z" fill="#2A2A2A" stroke="#2A2A2A" stroke-width="0.260417"/>
<path d="M39.8432 31.7053C39.6989 31.7053 39.5545 31.6571 39.4101 31.5128C39.2176 31.2721 39.2176 30.9353 39.4582 30.7428C40.4207 29.9246 40.902 29.0103 40.8538 28.0959C40.8538 26.5078 39.4582 25.3046 39.4582 25.3046C39.2176 25.1121 39.2176 24.7753 39.4101 24.5346C39.6026 24.294 39.9395 24.294 40.1801 24.4865C40.2764 24.5346 41.9607 26.0265 41.9607 28.0959C41.9607 29.3471 41.3832 30.5503 40.1801 31.609C40.132 31.6571 39.9876 31.7053 39.8432 31.7053Z" fill="#2A2A2A" stroke="#2A2A2A" stroke-width="0.260417"/>
<path d="M16.1656 31.7065C16.0212 31.7065 15.925 31.6584 15.7806 31.5621C14.5775 30.5034 14 29.3484 14 28.049C14 25.9796 15.7325 24.4878 15.7806 24.4396C16.0212 24.2471 16.3581 24.2471 16.5506 24.4878C16.7431 24.7284 16.7431 25.0653 16.5025 25.2578C16.4544 25.3059 15.1069 26.509 15.1069 28.049C15.1069 28.9634 15.5881 29.8778 16.5025 30.6959C16.7431 30.8884 16.7431 31.2253 16.5506 31.4659C16.4544 31.6103 16.31 31.7065 16.1656 31.7065Z" fill="#2A2A2A" stroke="#2A2A2A" stroke-width="0.260417"/>
</svg>
