<svg width="56" height="56" viewBox="0 0 56 56" fill="none" xmlns="http://www.w3.org/2000/svg">
<path d="M45.5619 25.2184C45.5694 25.0814 45.5728 24.9511 45.5728 24.8209C45.5748 22.757 44.7989 20.7681 43.3998 19.2509C42.0008 17.7336 40.0813 16.7993 38.0241 16.6343C36.5388 15.3048 34.6202 14.5614 32.6268 14.5431L34.6562 11.4553C34.945 11.0244 35.1097 10.5224 35.1323 10.0041C35.1549 9.48586 35.0346 8.97138 34.7844 8.51695C34.5397 8.05491 34.1728 7.66903 33.7236 7.40152C33.2744 7.134 32.7603 6.99515 32.2375 7.00013H26.8231C26.2487 6.99771 25.687 7.16929 25.212 7.49228C24.7369 7.81527 24.3708 8.27454 24.1618 8.80962L21.7993 14.7823C21.286 14.6227 20.7516 14.541 20.2141 14.5397C19.2528 14.5419 18.309 14.7963 17.4767 15.2774C16.6445 15.7585 15.953 16.4494 15.4713 17.2813C14.036 17.2644 12.6514 17.8118 11.6156 18.8057C10.5799 19.7996 9.9758 21.1605 9.93349 22.5954C8.92247 23.4013 8.22993 24.5396 7.97895 25.8079C7.72798 27.0763 7.93483 28.3926 8.56275 29.5229C8.56275 29.5544 8.56275 29.5866 8.56275 29.6188C8.56475 31.436 9.28747 33.1782 10.5724 34.4632C11.8573 35.7482 13.5994 36.471 15.4165 36.473C15.5234 36.473 15.6296 36.4695 15.7317 36.4634C16.0397 37.4623 16.5731 38.3771 17.2909 39.1371C18.0086 39.897 18.8915 40.4817 19.8712 40.8461C20.851 41.2105 21.9014 41.3447 22.9412 41.2384C23.9811 41.1321 24.9826 40.7882 25.8684 40.2331C26.0913 40.9364 26.5337 41.5498 27.1307 41.9832C27.7277 42.4167 28.4479 42.6475 29.1856 42.6417C29.2834 42.6416 29.3802 42.6621 29.4696 42.7019C29.559 42.7417 29.639 42.7999 29.7044 42.8727L33.6748 47.4211C33.874 47.6417 34.1172 47.8183 34.3886 47.9395C34.6601 48.0607 34.9538 48.1239 35.2511 48.125C35.8072 48.1245 36.3403 47.9033 36.7335 47.5101C37.1267 47.1169 37.3478 46.5837 37.3484 46.0276V43.2688C37.6897 43.3069 38.0329 43.3263 38.3764 43.3271C42.7224 43.3271 46.2582 40.4059 46.2582 36.8157C46.2574 36.2623 46.1717 35.7124 46.0039 35.1851C46.9422 34.7083 47.7232 33.9714 48.2536 33.0623C48.784 32.1533 49.0413 31.1107 48.9946 30.0593C48.948 29.0078 48.5994 27.9921 47.9906 27.1336C47.3819 26.2751 46.5386 25.6102 45.5619 25.2184ZM25.4325 9.31683C25.5411 9.03746 25.7317 8.79755 25.9794 8.6287C26.227 8.45985 26.52 8.36999 26.8197 8.37096H32.2341C32.5098 8.36749 32.7811 8.43997 33.0182 8.58045C33.2554 8.72094 33.4494 8.92401 33.5788 9.16741C33.7094 9.40497 33.772 9.67388 33.7599 9.94469C33.7479 10.2155 33.6615 10.4778 33.5103 10.7027L30.7318 14.9311L30.7194 14.9489L29.0746 17.4493C28.9557 17.6353 28.8893 17.85 28.8822 18.0706C28.8751 18.2913 28.9277 18.5098 29.0343 18.703C29.1409 18.8963 29.2977 19.0573 29.4881 19.169C29.6786 19.2806 29.8956 19.3389 30.1163 19.3376H34.4657C34.4931 19.3356 34.5204 19.3424 34.5436 19.3569C34.5669 19.3714 34.585 19.393 34.5952 19.4185C34.6063 19.442 34.6094 19.4684 34.6042 19.4938C34.599 19.5193 34.5858 19.5424 34.5664 19.5597L22.9446 31.8971L26.3598 23.7407C26.4369 23.5585 26.4677 23.36 26.4492 23.1631C26.4307 22.9661 26.3637 22.7768 26.254 22.6121C26.1444 22.4474 25.9956 22.3125 25.821 22.2195C25.6464 22.1265 25.4514 22.0783 25.2536 22.0792H21.1051C21.0256 22.0787 20.9474 22.0589 20.8772 22.0216C20.8071 21.9843 20.747 21.9305 20.7021 21.8649C20.6573 21.7993 20.629 21.7238 20.6196 21.6449C20.6103 21.5659 20.6203 21.4859 20.6486 21.4117L25.4325 9.31683ZM35.2443 46.7542C35.141 46.7531 35.039 46.7309 34.9447 46.6888C34.8504 46.6467 34.7657 46.5857 34.696 46.5095L30.7318 41.9686C30.5297 41.7435 30.2815 41.5646 30.004 41.4442C29.7265 41.3238 29.4263 41.2647 29.1239 41.2709C28.5905 41.2695 28.0785 41.0609 27.696 40.6892C27.3136 40.3174 27.0905 39.8115 27.074 39.2784C27.3694 38.9929 27.6384 38.6814 27.8779 38.3476C28.8794 38.7997 29.9507 39.0778 31.0457 39.1701C31.5412 40.1279 32.2388 40.9667 33.0904 41.6284C33.9419 42.2901 34.9271 42.7588 35.9776 43.0022V46.0276C35.9773 46.1235 35.958 46.2184 35.9209 46.3068C35.8839 46.3953 35.8297 46.4755 35.7616 46.543C35.6935 46.6105 35.6127 46.6639 35.524 46.7001C35.4352 46.7363 35.3402 46.7547 35.2443 46.7542ZM44.8875 36.8157C44.8875 39.6505 41.9664 41.9563 38.3764 41.9563C37.8453 41.9587 37.3154 41.9056 36.7953 41.7979C35.1107 41.5122 33.6077 40.5714 32.6145 39.181C34.1337 39.0555 35.6015 38.5719 36.8978 37.7697C38.194 36.9676 39.2818 35.8697 40.072 34.5661C40.7122 35.0878 41.4629 35.4566 42.2671 35.6445C43.0712 35.8324 43.9076 35.8345 44.7127 35.6505C44.8273 36.0283 44.8862 36.4208 44.8875 36.8157ZM43.5167 34.4167C42.6326 34.4104 41.7735 34.1222 41.0645 33.594C40.3555 33.0658 39.8335 32.3251 39.5745 31.4797C39.5216 31.3067 39.4025 31.1615 39.2432 31.076C39.0838 30.9904 38.897 30.9713 38.7236 31.0228C38.5502 31.0744 38.4042 31.1924 38.3175 31.3512C38.2307 31.51 38.2103 31.6966 38.2606 31.8704C38.4409 32.4638 38.7208 33.0222 39.0885 33.5216C38.5773 34.4725 37.8835 35.3132 37.0469 35.9956C36.2104 36.678 35.2475 37.1887 34.2133 37.4985C33.1791 37.8083 32.094 37.9111 31.0201 37.801C29.9461 37.6909 28.9045 37.37 27.9547 36.8568C27.5509 36.6377 27.166 36.3855 26.8039 36.1028C26.6602 35.9972 26.481 35.9517 26.3043 35.9761C26.1276 36.0005 25.9674 36.0928 25.8577 36.2334C25.748 36.374 25.6974 36.5518 25.7166 36.7292C25.7359 36.9065 25.8235 37.0693 25.9609 37.183C26.1864 37.3599 26.4222 37.5258 26.6634 37.6807C25.9561 38.6272 24.962 39.3199 23.8292 39.6556C22.6963 39.9914 21.4853 39.9521 20.3766 39.5438C19.2678 39.1355 18.3206 38.3799 17.676 37.3895C17.0315 36.3992 16.7241 35.2272 16.7995 34.048C16.8055 33.9581 16.7937 33.8679 16.7648 33.7826C16.7358 33.6973 16.6904 33.6185 16.631 33.5508C16.5716 33.483 16.4994 33.4277 16.4186 33.3878C16.3378 33.348 16.25 33.3245 16.1601 33.3187C16.07 33.3118 15.9795 33.323 15.8938 33.3515C15.8081 33.3801 15.7289 33.4255 15.661 33.4851C15.5931 33.5446 15.5377 33.6172 15.4982 33.6984C15.4587 33.7796 15.4358 33.868 15.4309 33.9582C15.4087 34.3396 15.4181 34.7222 15.459 35.1021C15.4446 35.1021 15.4309 35.1021 15.4165 35.1021C14.2694 35.1003 13.1518 34.7391 12.2206 34.0694C11.2894 33.3996 10.5915 32.4549 10.2248 31.368C10.473 31.5442 10.7355 31.6994 11.0095 31.832C11.0908 31.8707 11.1789 31.893 11.2688 31.8977C11.3587 31.9023 11.4486 31.8892 11.5335 31.8591C11.6183 31.829 11.6964 31.7825 11.7632 31.7222C11.8301 31.662 11.8844 31.5891 11.9231 31.5078C11.9618 31.4265 11.9841 31.3384 11.9888 31.2485C11.9935 31.1586 11.9804 31.0687 11.9503 30.9838C11.9201 30.899 11.8736 30.8209 11.8134 30.7541C11.7531 30.6872 11.6802 30.6329 11.5989 30.5942C10.8788 30.2518 10.2738 29.7074 9.85742 29.0273C9.85262 29.0191 9.85125 29.0095 9.84645 29.0019C9.49473 28.4217 9.29223 27.7633 9.25704 27.0856C9.22186 26.408 9.35509 25.7322 9.64482 25.1186C9.93455 24.505 10.3718 23.9728 10.9174 23.5694C11.463 23.1661 12.1001 22.9042 12.7716 22.8072C12.8608 22.7945 12.9465 22.7643 13.0241 22.7185C13.1016 22.6727 13.1693 22.612 13.2233 22.54C13.2774 22.468 13.3168 22.386 13.3391 22.2988C13.3615 22.2115 13.3665 22.1208 13.3538 22.0316C13.3412 21.9425 13.311 21.8567 13.2652 21.7792C13.2193 21.7017 13.1587 21.6339 13.0867 21.5799C13.0147 21.5258 12.9327 21.4864 12.8455 21.464C12.7583 21.4417 12.6675 21.4367 12.5783 21.4494C12.1883 21.507 11.8057 21.6067 11.4372 21.7468C11.6631 20.8625 12.1767 20.0785 12.8971 19.5182C13.6175 18.958 14.5038 18.6533 15.4165 18.6522C15.5535 18.6522 15.6803 18.6577 15.8092 18.67C16.2847 18.7146 16.7487 18.8424 17.1799 19.0477C17.3441 19.1258 17.5325 19.1356 17.7039 19.0748C17.8752 19.014 18.0154 18.8876 18.0935 18.7235C18.1717 18.5593 18.1814 18.3708 18.1207 18.1995C18.0599 18.0281 17.9335 17.888 17.7693 17.8098C17.5141 17.6897 17.2499 17.5895 16.9791 17.5103C17.3612 17.0152 17.8512 16.6138 18.4117 16.3365C18.9723 16.0593 19.5887 15.9136 20.2141 15.9105C20.5778 15.9124 20.9395 15.9636 21.2894 16.0627L19.3765 20.899C19.2676 21.1815 19.2286 21.4861 19.2629 21.787C19.2973 22.0878 19.4039 22.3759 19.5737 22.6265C19.7436 22.8772 19.9716 23.083 20.2382 23.2265C20.5049 23.3699 20.8023 23.4466 21.1051 23.4501H24.9966L21.4162 31.9993C21.3154 32.2676 21.3095 32.5623 21.3994 32.8345C21.4892 33.1066 21.6695 33.3399 21.9102 33.4954C22.1509 33.651 22.4376 33.7195 22.7227 33.6896C23.0077 33.6597 23.2739 33.5331 23.4771 33.331L35.5623 20.5028C35.76 20.2876 35.8911 20.0197 35.9399 19.7315C35.9886 19.4433 35.9528 19.1472 35.8368 18.879C35.7208 18.6107 35.5296 18.3818 35.2862 18.2199C35.0429 18.058 34.7579 17.9701 34.4657 17.9668H30.3761L31.6865 15.9736C32.6947 15.834 33.7214 15.926 34.6887 16.2426C35.6559 16.5593 36.5383 17.0922 37.2689 17.8009C37.275 17.8054 37.2814 17.8095 37.2881 17.8132C37.9139 18.41 38.4209 19.1201 38.7822 19.9058C38.837 20.0249 38.9248 20.1258 39.0352 20.1965C39.1457 20.2672 39.274 20.3048 39.4052 20.3047C39.5039 20.3048 39.6014 20.2833 39.691 20.2417C39.856 20.1656 39.984 20.0272 40.047 19.8567C40.11 19.6863 40.1027 19.4979 40.0268 19.3328C39.8612 18.9791 39.6704 18.6378 39.4559 18.3115C40.8347 18.7536 42.0373 19.6222 42.8904 20.7922C43.7435 21.9622 44.2028 23.3729 44.2021 24.8209C44.2013 25.0846 44.1846 25.3481 44.1521 25.6098C44.1521 25.618 44.1521 25.6256 44.1521 25.6338C44.0845 26.2093 43.9438 26.7739 43.7333 27.3138C43.7006 27.3976 43.6848 27.4872 43.6867 27.5772C43.6886 27.6672 43.7082 27.7559 43.7444 27.8384C43.7806 27.9208 43.8327 27.9953 43.8977 28.0576C43.9627 28.1198 44.0394 28.1687 44.1233 28.2014C44.2029 28.2326 44.2878 28.2484 44.3734 28.248C44.5115 28.248 44.6463 28.2063 44.7603 28.1284C44.8743 28.0505 44.9621 27.94 45.0122 27.8114C45.1577 27.4298 45.2743 27.0377 45.361 26.6386C46.1884 27.0529 46.8516 27.7345 47.2431 28.573C47.6346 29.4114 47.7315 30.3575 47.518 31.2579C47.3045 32.1582 46.7931 32.9601 46.0669 33.5335C45.3406 34.1068 44.442 34.4181 43.5167 34.4167Z" fill="#2A2A2A"/>
<path d="M45.5619 25.2184C45.5694 25.0814 45.5728 24.9511 45.5728 24.8209C45.5748 22.757 44.7989 20.7681 43.3998 19.2509C42.0008 17.7336 40.0813 16.7993 38.0241 16.6343C36.5388 15.3048 34.6202 14.5614 32.6268 14.5431L34.6562 11.4553C34.945 11.0244 35.1097 10.5224 35.1323 10.0041C35.1549 9.48586 35.0346 8.97138 34.7844 8.51695C34.5397 8.05491 34.1728 7.66903 33.7236 7.40152C33.2744 7.134 32.7603 6.99515 32.2375 7.00013H26.8231C26.2487 6.99771 25.687 7.16929 25.212 7.49228C24.7369 7.81527 24.3708 8.27454 24.1618 8.80962L21.7993 14.7823C21.286 14.6227 20.7516 14.541 20.2141 14.5397C19.2528 14.5419 18.309 14.7963 17.4767 15.2774C16.6445 15.7585 15.953 16.4494 15.4713 17.2813C14.036 17.2644 12.6514 17.8118 11.6156 18.8057C10.5799 19.7996 9.9758 21.1605 9.93349 22.5954C8.92247 23.4013 8.22993 24.5396 7.97895 25.8079C7.72798 27.0763 7.93483 28.3926 8.56275 29.5229C8.56275 29.5544 8.56275 29.5866 8.56275 29.6188C8.56475 31.436 9.28747 33.1782 10.5724 34.4632C11.8573 35.7482 13.5994 36.471 15.4165 36.473C15.5234 36.473 15.6296 36.4695 15.7317 36.4634C16.0397 37.4623 16.5731 38.3771 17.2909 39.1371C18.0086 39.897 18.8915 40.4817 19.8712 40.8461C20.851 41.2105 21.9014 41.3447 22.9412 41.2384C23.9811 41.1321 24.9826 40.7882 25.8684 40.2331C26.0913 40.9364 26.5337 41.5498 27.1307 41.9832C27.7277 42.4167 28.4479 42.6475 29.1856 42.6417C29.2834 42.6416 29.3802 42.6621 29.4696 42.7019C29.559 42.7417 29.639 42.7999 29.7044 42.8727L33.6748 47.4211C33.874 47.6417 34.1172 47.8183 34.3886 47.9395C34.6601 48.0607 34.9538 48.1239 35.2511 48.125C35.8072 48.1245 36.3403 47.9033 36.7335 47.5101C37.1267 47.1169 37.3478 46.5837 37.3484 46.0276V43.2688C37.6897 43.3069 38.0329 43.3263 38.3764 43.3271C42.7224 43.3271 46.2582 40.4059 46.2582 36.8157C46.2574 36.2623 46.1717 35.7124 46.0039 35.1851C46.9422 34.7083 47.7232 33.9714 48.2536 33.0623C48.784 32.1533 49.0413 31.1107 48.9946 30.0593C48.948 29.0078 48.5994 27.9921 47.9906 27.1336C47.3819 26.2751 46.5386 25.6102 45.5619 25.2184ZM25.4325 9.31683C25.5411 9.03746 25.7317 8.79755 25.9794 8.6287C26.227 8.45985 26.52 8.36999 26.8197 8.37096H32.2341C32.5098 8.36749 32.7811 8.43997 33.0182 8.58045C33.2554 8.72094 33.4494 8.92401 33.5788 9.16741C33.7094 9.40497 33.772 9.67388 33.7599 9.94469C33.7479 10.2155 33.6615 10.4778 33.5103 10.7027L30.7318 14.9311L30.7194 14.9489L29.0746 17.4493C28.9557 17.6353 28.8893 17.85 28.8822 18.0706C28.8751 18.2913 28.9277 18.5098 29.0343 18.703C29.1409 18.8963 29.2977 19.0573 29.4881 19.169C29.6786 19.2806 29.8956 19.3389 30.1163 19.3376H34.4657C34.4931 19.3356 34.5204 19.3424 34.5436 19.3569C34.5669 19.3714 34.585 19.393 34.5952 19.4185C34.6063 19.442 34.6094 19.4684 34.6042 19.4938C34.599 19.5193 34.5858 19.5424 34.5664 19.5597L22.9446 31.8971L26.3598 23.7407C26.4369 23.5585 26.4677 23.36 26.4492 23.1631C26.4307 22.9661 26.3637 22.7768 26.254 22.6121C26.1444 22.4474 25.9956 22.3125 25.821 22.2195C25.6464 22.1265 25.4514 22.0783 25.2536 22.0792H21.1051C21.0256 22.0787 20.9474 22.0589 20.8772 22.0216C20.8071 21.9843 20.747 21.9305 20.7021 21.8649C20.6573 21.7993 20.629 21.7238 20.6196 21.6449C20.6103 21.5659 20.6203 21.4859 20.6486 21.4117L25.4325 9.31683ZM35.2443 46.7542C35.141 46.7531 35.039 46.7309 34.9447 46.6888C34.8504 46.6467 34.7657 46.5857 34.696 46.5095L30.7318 41.9686C30.5297 41.7435 30.2815 41.5646 30.004 41.4442C29.7265 41.3238 29.4263 41.2647 29.1239 41.2709C28.5905 41.2695 28.0785 41.0609 27.696 40.6892C27.3136 40.3174 27.0905 39.8115 27.074 39.2784C27.3694 38.9929 27.6384 38.6814 27.8779 38.3476C28.8794 38.7997 29.9507 39.0778 31.0457 39.1701C31.5412 40.1279 32.2388 40.9667 33.0904 41.6284C33.9419 42.2901 34.9271 42.7588 35.9776 43.0022V46.0276C35.9773 46.1235 35.958 46.2184 35.9209 46.3068C35.8839 46.3953 35.8297 46.4755 35.7616 46.543C35.6935 46.6105 35.6127 46.6639 35.524 46.7001C35.4352 46.7363 35.3402 46.7547 35.2443 46.7542ZM44.8875 36.8157C44.8875 39.6505 41.9664 41.9563 38.3764 41.9563C37.8453 41.9587 37.3154 41.9056 36.7953 41.7979C35.1107 41.5122 33.6077 40.5714 32.6145 39.181C34.1337 39.0555 35.6015 38.5719 36.8978 37.7697C38.194 36.9676 39.2818 35.8697 40.072 34.5661C40.7122 35.0878 41.4629 35.4566 42.2671 35.6445C43.0712 35.8324 43.9076 35.8345 44.7127 35.6505C44.8273 36.0283 44.8862 36.4208 44.8875 36.8157ZM43.5167 34.4167C42.6326 34.4104 41.7735 34.1222 41.0645 33.594C40.3555 33.0658 39.8335 32.3251 39.5745 31.4797C39.5216 31.3067 39.4025 31.1615 39.2432 31.076C39.0838 30.9904 38.897 30.9713 38.7236 31.0228C38.5502 31.0744 38.4042 31.1924 38.3175 31.3512C38.2307 31.51 38.2103 31.6966 38.2606 31.8704C38.4409 32.4638 38.7208 33.0222 39.0885 33.5216C38.5773 34.4725 37.8835 35.3132 37.0469 35.9956C36.2104 36.678 35.2475 37.1887 34.2133 37.4985C33.1791 37.8083 32.094 37.9111 31.0201 37.801C29.9461 37.6909 28.9045 37.37 27.9547 36.8568C27.5509 36.6377 27.166 36.3855 26.8039 36.1028C26.6602 35.9972 26.481 35.9517 26.3043 35.9761C26.1276 36.0005 25.9674 36.0928 25.8577 36.2334C25.748 36.374 25.6974 36.5518 25.7166 36.7292C25.7359 36.9065 25.8235 37.0693 25.9609 37.183C26.1864 37.3599 26.4222 37.5258 26.6634 37.6807C25.9561 38.6272 24.962 39.3199 23.8292 39.6556C22.6963 39.9914 21.4853 39.9521 20.3766 39.5438C19.2678 39.1355 18.3206 38.3799 17.676 37.3895C17.0315 36.3992 16.7241 35.2272 16.7995 34.048C16.8055 33.9581 16.7937 33.8679 16.7648 33.7826C16.7358 33.6973 16.6904 33.6185 16.631 33.5508C16.5716 33.483 16.4994 33.4277 16.4186 33.3878C16.3378 33.348 16.25 33.3245 16.1601 33.3187C16.07 33.3118 15.9795 33.323 15.8938 33.3515C15.8081 33.3801 15.7289 33.4255 15.661 33.4851C15.5931 33.5446 15.5377 33.6172 15.4982 33.6984C15.4587 33.7796 15.4358 33.868 15.4309 33.9582C15.4087 34.3396 15.4181 34.7222 15.459 35.1021C15.4446 35.1021 15.4309 35.1021 15.4165 35.1021C14.2694 35.1003 13.1518 34.7391 12.2206 34.0694C11.2894 33.3996 10.5915 32.4549 10.2248 31.368C10.473 31.5442 10.7355 31.6994 11.0095 31.832C11.0908 31.8707 11.1789 31.893 11.2688 31.8977C11.3587 31.9023 11.4486 31.8892 11.5335 31.8591C11.6183 31.829 11.6964 31.7825 11.7632 31.7222C11.8301 31.662 11.8844 31.5891 11.9231 31.5078C11.9618 31.4265 11.9841 31.3384 11.9888 31.2485C11.9935 31.1586 11.9804 31.0687 11.9503 30.9838C11.9201 30.899 11.8736 30.8209 11.8134 30.7541C11.7531 30.6872 11.6802 30.6329 11.5989 30.5942C10.8788 30.2518 10.2738 29.7074 9.85742 29.0273C9.85262 29.0191 9.85125 29.0095 9.84645 29.0019C9.49473 28.4217 9.29223 27.7633 9.25704 27.0856C9.22186 26.408 9.35509 25.7322 9.64482 25.1186C9.93455 24.505 10.3718 23.9728 10.9174 23.5694C11.463 23.1661 12.1001 22.9042 12.7716 22.8072C12.8608 22.7945 12.9465 22.7643 13.0241 22.7185C13.1016 22.6727 13.1693 22.612 13.2233 22.54C13.2774 22.468 13.3168 22.386 13.3391 22.2988C13.3615 22.2115 13.3665 22.1208 13.3538 22.0316C13.3412 21.9425 13.311 21.8567 13.2652 21.7792C13.2193 21.7017 13.1587 21.6339 13.0867 21.5799C13.0147 21.5258 12.9327 21.4864 12.8455 21.464C12.7583 21.4417 12.6675 21.4367 12.5783 21.4494C12.1883 21.507 11.8057 21.6067 11.4372 21.7468C11.6631 20.8625 12.1767 20.0785 12.8971 19.5182C13.6175 18.958 14.5038 18.6533 15.4165 18.6522C15.5535 18.6522 15.6803 18.6577 15.8092 18.67C16.2847 18.7146 16.7487 18.8424 17.1799 19.0477C17.3441 19.1258 17.5325 19.1356 17.7039 19.0748C17.8752 19.014 18.0154 18.8876 18.0935 18.7235C18.1717 18.5593 18.1814 18.3708 18.1207 18.1995C18.0599 18.0281 17.9335 17.888 17.7693 17.8098C17.5141 17.6897 17.2499 17.5895 16.9791 17.5103C17.3612 17.0152 17.8512 16.6138 18.4117 16.3365C18.9723 16.0593 19.5887 15.9136 20.2141 15.9105C20.5778 15.9124 20.9395 15.9636 21.2894 16.0627L19.3765 20.899C19.2676 21.1815 19.2286 21.4861 19.2629 21.787C19.2973 22.0878 19.4039 22.3759 19.5737 22.6265C19.7436 22.8772 19.9716 23.083 20.2382 23.2265C20.5049 23.3699 20.8023 23.4466 21.1051 23.4501H24.9966L21.4162 31.9993C21.3154 32.2676 21.3095 32.5623 21.3994 32.8345C21.4892 33.1066 21.6695 33.3399 21.9102 33.4954C22.1509 33.651 22.4376 33.7195 22.7227 33.6896C23.0077 33.6597 23.2739 33.5331 23.4771 33.331L35.5623 20.5028C35.76 20.2876 35.8911 20.0197 35.9399 19.7315C35.9886 19.4433 35.9528 19.1472 35.8368 18.879C35.7208 18.6107 35.5296 18.3818 35.2862 18.2199C35.0429 18.058 34.7579 17.9701 34.4657 17.9668H30.3761L31.6865 15.9736C32.6947 15.834 33.7214 15.926 34.6887 16.2426C35.6559 16.5593 36.5383 17.0922 37.2689 17.8009C37.275 17.8054 37.2814 17.8095 37.2881 17.8132C37.9139 18.41 38.4209 19.1201 38.7822 19.9058C38.837 20.0249 38.9248 20.1258 39.0352 20.1965C39.1457 20.2672 39.274 20.3048 39.4052 20.3047C39.5039 20.3048 39.6014 20.2833 39.691 20.2417C39.856 20.1656 39.984 20.0272 40.047 19.8567C40.11 19.6863 40.1027 19.4979 40.0268 19.3328C39.8612 18.9791 39.6704 18.6378 39.4559 18.3115C40.8347 18.7536 42.0373 19.6222 42.8904 20.7922C43.7435 21.9622 44.2028 23.3729 44.2021 24.8209C44.2013 25.0846 44.1846 25.3481 44.1521 25.6098C44.1521 25.618 44.1521 25.6256 44.1521 25.6338C44.0845 26.2093 43.9438 26.7739 43.7333 27.3138C43.7006 27.3976 43.6848 27.4872 43.6867 27.5772C43.6886 27.6672 43.7082 27.7559 43.7444 27.8384C43.7806 27.9208 43.8327 27.9953 43.8977 28.0576C43.9627 28.1198 44.0394 28.1687 44.1233 28.2014C44.2029 28.2326 44.2878 28.2484 44.3734 28.248C44.5115 28.248 44.6463 28.2063 44.7603 28.1284C44.8743 28.0505 44.9621 27.94 45.0122 27.8114C45.1577 27.4298 45.2743 27.0377 45.361 26.6386C46.1884 27.0529 46.8516 27.7345 47.2431 28.573C47.6346 29.4114 47.7315 30.3575 47.518 31.2579C47.3045 32.1582 46.7931 32.9601 46.0669 33.5335C45.3406 34.1068 44.442 34.4181 43.5167 34.4167Z" fill="#2A2A2A"/>
</svg>
