<svg width="56" height="56" viewBox="0 0 56 56" fill="none" xmlns="http://www.w3.org/2000/svg">
<path d="M32.9316 34.7455C29.0875 34.7455 25.9807 31.6386 25.9807 27.7946C25.9807 23.9506 29.0875 20.8438 32.9316 20.8438C36.7756 20.8438 39.8824 23.9506 39.8824 27.7946C39.9351 31.6386 36.7756 34.7455 32.9316 34.7455ZM32.9316 21.9496C29.7194 21.9496 27.0865 24.5825 27.0865 27.7946C27.0865 31.0068 29.7194 33.6397 32.9316 33.6397C36.1437 33.6397 38.7766 31.0068 38.7766 27.7946C38.7766 24.5825 36.1437 21.9496 32.9316 21.9496Z" fill="#2A2A2A" stroke="#2A2A2A" stroke-width="0.260417"/>
<path d="M43.3052 34.5865C43.1999 34.5865 43.0946 34.5339 42.9893 34.4812C42.726 34.3232 42.6207 33.9546 42.7786 33.6913C43.8318 31.901 44.411 29.8473 44.411 27.741C44.411 25.582 43.8318 23.4757 42.6733 21.6326C42.5154 21.3693 42.568 21.0007 42.8313 20.8428C43.0946 20.6848 43.4632 20.7375 43.6212 21.0007C44.885 23.0017 45.5169 25.3187 45.5169 27.6883C45.5169 30.0053 44.885 32.2696 43.7265 34.2179C43.7265 34.4812 43.5159 34.5865 43.3052 34.5865Z" fill="#2A2A2A" stroke="#2A2A2A" stroke-width="0.260417"/>
<path d="M22.2949 34.114C22.0842 34.114 21.8736 34.0086 21.7683 33.798C20.7678 31.955 20.2412 29.8487 20.2412 27.7423C20.2412 25.478 20.8204 23.2664 21.9789 21.3181C22.1369 21.0548 22.5055 20.9495 22.7688 21.1074C23.0321 21.2654 23.1374 21.634 22.9794 21.8973C21.9263 23.6877 21.3997 25.6887 21.3997 27.7423C21.3997 29.638 21.8736 31.5337 22.7688 33.2188C22.9268 33.4821 22.8215 33.8507 22.5582 34.0086C22.5055 34.114 22.4002 34.114 22.2949 34.114Z" fill="#2A2A2A" stroke="#2A2A2A" stroke-width="0.260417"/>
<path d="M33.2476 40.4313C33.0896 40.4313 33.037 40.4313 32.9843 40.4313C32.1944 40.484 20.9783 40.6946 11.6578 28.1093C11.4998 27.8987 11.4998 27.6354 11.6578 27.4248C20.9256 14.8395 32.1944 15.0502 32.9843 15.1028C33.7742 15.0502 44.9903 14.8395 54.3108 27.4248C54.4688 27.6354 54.4688 27.8987 54.3108 28.1093C45.5696 39.9048 35.1959 40.4313 33.2476 40.4313ZM32.9316 39.3255C32.9843 39.3255 32.9843 39.3255 32.9316 39.3255C33.0896 39.3255 44.0425 39.6941 53.047 27.7934C44.0425 15.8927 33.0896 16.2613 32.9843 16.2613H32.9316C32.8263 16.2613 21.8208 15.8927 12.8163 27.7934C21.8208 39.6941 32.8263 39.3255 32.9316 39.3255Z" fill="#2A2A2A" stroke="#2A2A2A" stroke-width="0.260417"/>
<path d="M12.1317 28.3744C12.079 28.3744 12.079 28.3744 12.1317 28.3744C12.0264 28.3744 3.12717 27.9005 1.75806 20.3704C1.70541 20.0544 1.91604 19.7385 2.23199 19.6858C2.54793 19.6331 2.86388 19.8438 2.91654 20.1597C4.12768 26.742 11.8684 27.2159 12.237 27.2159C12.553 27.2159 12.8163 27.4792 12.7636 27.7951C12.6583 28.1111 12.395 28.3744 12.1317 28.3744Z" fill="#2A2A2A" stroke="#2A2A2A" stroke-width="0.260417"/>
<path d="M15.6597 23.8457C14.2379 23.8457 10.1306 23.3718 8.39284 18.3693C8.28753 18.0534 8.4455 17.7374 8.76145 17.6321C9.0774 17.5268 9.39335 17.6848 9.49866 18.0007C11.289 23.2139 15.8176 22.6873 16.0283 22.6873C16.3442 22.6346 16.6075 22.8979 16.6602 23.1612C16.7128 23.4771 16.5022 23.7404 16.1862 23.7931C16.1336 23.8458 15.9756 23.8457 15.6597 23.8457Z" fill="#2A2A2A" stroke="#2A2A2A" stroke-width="0.260417"/>
<path d="M20.2411 20.4748C20.1884 20.4748 20.1884 20.4748 20.1358 20.4748C19.9251 20.4222 15.3965 19.7376 14.4487 15.7883C14.396 15.4723 14.554 15.1564 14.87 15.1037C15.1859 15.0511 15.5019 15.209 15.5545 15.525C16.2917 18.7371 20.2411 19.3164 20.2411 19.3164C20.557 19.369 20.7677 19.6323 20.715 19.9483C20.7677 20.3169 20.5044 20.4748 20.2411 20.4748Z" fill="#2A2A2A" stroke="#2A2A2A" stroke-width="0.260417"/>
<path d="M7.86637 37.115C7.81371 37.115 7.76105 37.115 7.65574 37.0623C7.33979 36.957 7.18181 36.641 7.28713 36.3251C9.34079 30.2168 14.9752 30.8486 15.0279 30.8486C15.3438 30.9013 15.5544 31.1646 15.5018 31.4805C15.4491 31.7965 15.1858 32.0071 14.8699 31.9545C14.6593 31.9545 10.1307 31.4279 8.34029 36.641C8.34029 36.957 8.12966 37.115 7.86637 37.115Z" fill="#2A2A2A" stroke="#2A2A2A" stroke-width="0.260417"/>
<path d="M13.3429 39.2737C13.2902 39.2737 13.2376 39.2737 13.1849 39.2737C12.869 39.2211 12.711 38.9051 12.7636 38.5892C13.7115 34.6398 18.2401 33.9553 18.4507 33.9026C18.7667 33.8499 19.0299 34.0606 19.0826 34.3765C19.1353 34.6925 18.9246 34.9558 18.6087 35.0084C18.556 35.0084 14.6593 35.6403 13.9221 38.7998C13.8168 39.0631 13.5535 39.2737 13.3429 39.2737Z" fill="#2A2A2A" stroke="#2A2A2A" stroke-width="0.260417"/>
<path d="M18.2926 40.9057C18.2399 40.9057 18.1873 40.9057 18.1346 40.9057C17.8187 40.853 17.6607 40.5371 17.7133 40.2211C18.4506 37.2723 20.8728 36.4824 22.084 36.4824C22.3999 36.4824 22.6632 36.7457 22.6632 37.0617C22.6632 37.3776 22.3999 37.6409 22.084 37.6409C21.9787 37.6409 19.5564 37.6936 18.8192 40.4844C18.8192 40.7477 18.5559 40.9057 18.2926 40.9057Z" fill="#2A2A2A" stroke="#2A2A2A" stroke-width="0.260417"/>
</svg>
