<svg width="56" height="56" viewBox="0 0 56 56" fill="none" xmlns="http://www.w3.org/2000/svg">
<path d="M24.1987 18.9857C23.8761 18.9857 23.7127 18.5542 23.9483 18.3396L25.0349 17.3489C25.1768 17.2196 25.3937 17.2196 25.5356 17.3489L26.6218 18.339C26.7734 18.4772 26.7843 18.7122 26.6461 18.864C26.5078 19.0157 26.2728 19.0265 26.1211 18.8882L25.2852 18.1264L24.4489 18.8888C24.3777 18.9536 24.2881 18.9857 24.1987 18.9857Z" fill="#2A2A2A" stroke="#2A2A2A" stroke-width="0.0868056"/>
<path d="M25.8432 20.6654C25.8415 21.0483 25.5752 21.3597 25.2484 21.361C24.9216 21.3623 24.6581 21.053 24.6598 20.6702C24.6615 20.2873 24.9277 19.9759 25.2545 19.9746C25.5814 19.9733 25.8448 20.2826 25.8432 20.6654Z" fill="#2A2A2A" stroke="#2A2A2A" stroke-width="0.0868056"/>
<path d="M32.6669 18.9409C32.5775 18.9409 32.4879 18.9089 32.4167 18.8439L31.5804 18.0815L30.7445 18.8433C30.5929 18.9815 30.358 18.9707 30.2196 18.819C30.0812 18.6673 30.0922 18.4323 30.2438 18.294L31.33 17.304C31.4719 17.1747 31.6888 17.1747 31.8307 17.304L32.9174 18.2946C33.1528 18.5094 32.9896 18.9409 32.6669 18.9409Z" fill="#2A2A2A" stroke="#2A2A2A" stroke-width="0.0868056"/>
<path d="M32.2058 20.6228C32.2043 21.0057 31.9383 21.3169 31.6115 21.3181C31.2847 21.3193 31.021 21.0099 31.0225 20.627C31.024 20.2441 31.29 19.9328 31.6168 19.9316C31.9435 19.9306 32.2073 20.2399 32.2058 20.6228Z" fill="#2A2A2A" stroke="#2A2A2A" stroke-width="0.0868056"/>
<path d="M29.8222 24.7432H27.0529C26.8476 24.7432 26.6813 24.5768 26.6813 24.3716C26.6813 24.1664 26.8476 24 27.0529 24H29.8222C30.0274 24 30.1938 24.1664 30.1938 24.3716C30.1938 24.5768 30.0274 24.7432 29.8222 24.7432Z" fill="#2A2A2A" stroke="#2A2A2A" stroke-width="0.0868056"/>
<path d="M9.50195 10.2898C9.89823 10.2898 10.2195 9.96783 10.2195 9.57067C10.2195 9.17352 9.89823 8.85156 9.50195 8.85156C9.10567 8.85156 8.78442 9.17352 8.78442 9.57067C8.78442 9.96783 9.10567 10.2898 9.50195 10.2898Z" fill="#2A2A2A" stroke="#2A2A2A" stroke-width="0.0868056"/>
<path d="M13.6728 9.2223H12.7736C12.6951 8.73377 12.5025 8.2833 12.2245 7.89843L12.8626 7.25879C13.0559 7.06507 13.0556 6.75134 12.8618 6.55811C12.6681 6.36488 12.3544 6.36518 12.1612 6.5589L11.5243 7.19725C11.1406 6.9192 10.6915 6.72657 10.2047 6.64799V5.74546C10.2047 5.47187 9.98283 5.25 9.70923 5.25C9.43564 5.25 9.21377 5.47187 9.21377 5.74546V6.64799C8.72684 6.72657 8.27785 6.9192 7.89417 7.19725L7.2573 6.5589C7.06407 6.36518 6.75035 6.36488 6.55663 6.55811C6.3629 6.75144 6.3626 7.06507 6.55583 7.25879L7.19398 7.89843C6.91593 8.2832 6.7233 8.73377 6.64492 9.2223H5.74546C5.47187 9.2223 5.25 9.44416 5.25 9.71776C5.25 9.99135 5.47187 10.2132 5.74546 10.2132H6.64472C6.7232 10.7017 6.91573 11.1523 7.19379 11.5371L6.55563 12.1766C6.00538 12.7282 6.76115 13.3755 7.2903 12.8434C7.45787 12.675 7.72403 12.4087 7.89407 12.2383C8.27775 12.5163 8.72684 12.7089 9.21368 12.7875V13.6901C9.21368 13.9636 9.43554 14.1855 9.70913 14.1855C9.98273 14.1855 10.2046 13.9636 10.2046 13.6901V12.7875C10.6915 12.7089 11.1405 12.5163 11.5242 12.2383L12.1611 12.8765C12.6137 13.3301 13.315 12.63 12.8625 12.1766L12.2244 11.5371C12.5024 11.1523 12.6951 10.7017 12.7735 10.2132H13.6728C13.9464 10.2132 14.1683 9.99135 14.1683 9.71776C14.1683 9.44416 13.9464 9.2223 13.6728 9.2223ZM9.70913 11.8368C8.54381 11.8368 7.5958 10.8862 7.5958 9.71785C7.5958 8.54946 8.54381 7.59877 9.70913 7.59877C10.8745 7.59877 11.8225 8.54936 11.8225 9.71776C11.8225 10.8861 10.8745 11.8368 9.70913 11.8368Z" fill="#2A2A2A" stroke="#2A2A2A" stroke-width="0.0868056"/>
<path d="M46.9587 10.2898C47.355 10.2898 47.6763 9.96783 47.6763 9.57067C47.6763 9.17352 47.355 8.85156 46.9587 8.85156C46.5625 8.85156 46.2412 9.17352 46.2412 9.57067C46.2412 9.96783 46.5625 10.2898 46.9587 10.2898Z" fill="#2A2A2A" stroke="#2A2A2A" stroke-width="0.0868056"/>
<path d="M51.1296 9.2223H50.2302C50.1518 8.73377 49.9592 8.2832 49.6812 7.89843L50.3193 7.25889C50.5127 7.06517 50.5123 6.75144 50.3185 6.55821C50.1249 6.36498 49.8112 6.36528 49.6179 6.559L48.981 7.19735C48.5973 6.9192 48.1482 6.72667 47.6614 6.64799V5.74546C47.6614 5.47187 47.4396 5.25 47.1659 5.25C46.8922 5.25 46.6705 5.47187 46.6705 5.74546V6.64799C46.1835 6.72657 45.7345 6.9192 45.3509 7.19735L44.7139 6.559C44.5207 6.36528 44.2069 6.36498 44.0133 6.55821C43.8196 6.75154 43.8192 7.06526 44.0125 7.25889L44.6507 7.89843C44.3726 8.2832 44.18 8.73377 44.1016 9.2223H43.2022C42.9286 9.2223 42.7068 9.44416 42.7068 9.71776C42.7068 9.99135 42.9286 10.2132 43.2022 10.2132H44.1016C44.1801 10.7017 44.3726 11.1523 44.6507 11.5371L44.0124 12.1766C43.5599 12.63 44.2611 13.3301 44.7138 12.8765L45.3508 12.2382C45.7344 12.5162 46.1835 12.7088 46.6704 12.7874V13.69C46.6704 13.9635 46.8921 14.1854 47.1658 14.1854C47.4395 14.1854 47.6613 13.9635 47.6613 13.69V12.7874C48.1482 12.7088 48.5972 12.5162 48.9809 12.2382L49.6178 12.8765C50.0704 13.3301 50.7718 12.6299 50.3192 12.1766L49.681 11.5371C49.9591 11.1523 50.1517 10.7017 50.23 10.2132H51.1296C51.4033 10.2132 51.6251 9.99135 51.6251 9.71776C51.6251 9.44416 51.4033 9.2223 51.1296 9.2223ZM47.1659 11.8368C46.0006 11.8368 45.0527 10.8862 45.0527 9.71785C45.0527 8.54946 46.0006 7.59877 47.1659 7.59877C48.3312 7.59877 49.2792 8.54936 49.2792 9.71776C49.2792 10.8861 48.3312 11.8368 47.1659 11.8368Z" fill="#2A2A2A" stroke="#2A2A2A" stroke-width="0.0868056"/>
<path d="M11.8511 24.1972C12.2069 24.1972 12.4952 23.9082 12.4952 23.5517C12.4952 23.1952 12.2069 22.9062 11.8511 22.9062C11.4954 22.9062 11.207 23.1952 11.207 23.5517C11.207 23.9082 11.4954 24.1972 11.8511 24.1972Z" fill="#2A2A2A" stroke="#2A2A2A" stroke-width="0.0868056"/>
<path d="M45.1231 24.4453C45.4788 24.4453 45.7672 24.1563 45.7672 23.7998C45.7672 23.4433 45.4788 23.1543 45.1231 23.1543C44.7674 23.1543 44.479 23.4433 44.479 23.7998C44.479 24.1563 44.7674 24.4453 45.1231 24.4453Z" fill="#2A2A2A" stroke="#2A2A2A" stroke-width="0.0868056"/>
<path d="M48.5751 30.0437C48.5751 30.0437 47.1495 26.8288 46.604 25.5988C46.49 25.3416 46.185 25.2317 45.9328 25.3563L41.7231 27.4357L41.327 26.5191C41.2249 26.3236 41.0733 26.224 40.8721 26.2203C40.5836 26.2203 40.2451 26.451 39.9909 26.563C39.5215 26.7701 38.9687 26.5719 38.7584 26.1213L37.9218 24.3273C37.6916 23.8337 37.9942 23.2678 38.5057 23.1244L40.8344 22.4713C41.6779 22.2349 42.5498 22.3293 43.2915 22.6815C43.3658 22.7168 43.4465 22.7394 43.5287 22.7383C44.0497 22.7317 44.2069 22.0241 43.7342 21.7969C42.778 21.3373 41.6534 21.2125 40.5667 21.5173L38.2381 22.1704C37.1555 22.4741 36.5411 23.7112 37.0238 24.7463L37.8604 26.5402C38.3522 27.5948 39.6314 27.8749 40.6156 27.3707L41.9989 30.5702C40.5629 30.0962 39.1128 30.5986 38.219 31.7967C36.3658 30.28 34.0219 30.4138 31.7833 30.4138V29.4765C31.7833 29.2029 31.5615 28.9811 31.2879 28.9811C31.0143 28.9811 30.7924 29.2029 30.7924 29.4765V30.9275C30.7924 32.245 29.7143 33.358 28.3971 33.3357C27.1171 33.3141 26.0824 32.2661 26.0824 30.9809V27.7977C30.5699 29.156 35.418 26.2946 36.4004 21.708C37.8444 21.7808 39.0892 20.5794 39.0892 19.1373C39.0892 18.1465 38.528 17.2858 37.7086 16.8553C37.8392 16.2559 37.9063 15.642 37.9063 15.022C37.9063 9.86843 33.4816 5.34766 28.4374 5.34766C23.1278 5.34766 18.9686 9.59721 18.9686 15.0221C18.9686 15.6426 19.0358 16.2569 19.1665 16.8567C18.3472 17.2871 17.7856 18.1467 17.7856 19.1374C17.7856 20.5574 18.9367 21.7126 20.3516 21.7126C20.3929 21.7126 20.4338 21.7102 20.4746 21.7081C21.0212 24.2601 22.767 26.372 25.0916 27.4242V30.4137C22.8516 30.4137 20.5114 30.2779 18.656 31.7966C17.7626 30.599 16.3128 30.0959 14.8761 30.5701L16.2594 27.3705L16.484 27.4696C17.443 27.8929 18.5782 27.4759 19.0145 26.5401L19.8511 24.7462C20.3341 23.7108 19.7184 22.4737 18.6368 22.1703L16.3082 21.5173C15.4028 21.2633 14.471 21.3081 13.6321 21.5958C13.4352 21.6634 13.287 21.8383 13.277 22.0462C13.2599 22.4016 13.6059 22.6515 13.9367 22.5365C14.5945 22.3077 15.3277 22.2713 16.0406 22.4714L18.3693 23.1245C18.8808 23.2679 19.1832 23.8339 18.9531 24.3274L18.1164 26.1214C17.9062 26.572 17.3534 26.7701 16.884 26.5631L16.2027 26.2625C15.9132 26.1663 15.6949 26.2518 15.5479 26.5191L15.1386 27.3669L10.9528 25.3772C10.702 25.258 10.4022 25.3682 10.2882 25.6215L8.29985 30.0436C6.43831 34.1836 10.1657 37.9366 14.1226 38.2991C15.6394 38.4382 16.9769 38.2112 17.595 38.0767C17.7609 38.3143 17.9459 38.5318 18.148 38.7272V49.1442C18.148 50.5113 19.2589 51.6236 20.6244 51.6236H36.2219C37.5838 51.6236 38.6947 50.5143 38.6983 49.1508L38.7261 38.7277C38.9286 38.5321 39.1137 38.3145 39.2797 38.0767C42.8617 38.8557 46.9612 37.973 48.5913 34.3732C49.207 33.014 49.2009 31.436 48.5751 30.0437ZM38.0983 19.1374C38.0983 20.0024 37.4054 20.7065 36.5489 20.7204C36.581 20.3544 36.5845 19.9868 36.5816 19.6198C36.9332 19.0563 37.2164 18.4605 37.4302 17.843C37.834 18.1301 38.0983 18.6032 38.0983 19.1374ZM18.7764 19.1374C18.7764 18.6035 19.0415 18.1323 19.4453 17.8455C19.6591 18.4623 19.942 19.0576 20.2933 19.6205C20.2903 19.9873 20.2939 20.3547 20.326 20.7204C19.4694 20.7065 18.7764 20.0023 18.7764 19.1374ZM21.0213 18.9116C20.3253 17.7257 19.9595 16.3901 19.9595 15.0221C19.9595 10.1528 23.6834 6.33858 28.4374 6.33858C32.9537 6.33858 36.9154 10.3963 36.9154 15.0221C36.9154 16.3887 36.55 17.7232 35.8549 18.9087C35.6782 18.7545 35.5692 18.5288 35.5692 18.2858V13.6821C35.5692 13.2699 35.0729 13.0374 34.7564 13.3017C33.4994 14.3504 31.0781 15.0018 28.4372 15.0018C25.7993 15.0018 23.3793 14.3513 22.1214 13.3043C21.8047 13.0409 21.3089 13.273 21.3089 13.6851V18.2871C21.3089 18.531 21.1992 18.7575 21.0213 18.9116ZM21.2843 20.0023V19.9158C21.895 19.6129 22.2999 18.9831 22.2999 18.2871V14.6215C23.8087 15.48 26.0549 15.9926 28.4372 15.9926C30.8219 15.9926 33.0695 15.4792 34.5783 14.6194V18.2857C34.5783 18.9802 34.9819 19.6093 35.5906 19.9129C35.6298 23.8403 32.372 27.1553 28.4374 27.1553C24.4932 27.1554 21.2843 23.9465 21.2843 20.0023ZM47.6887 33.9645C46.2325 37.1803 42.3424 37.9118 39.1883 37.0358C38.9713 36.9743 38.7406 37.0672 38.6265 37.2614C38.4272 37.6003 38.1852 37.8941 37.9071 38.1345C37.7987 38.2283 37.7362 38.3645 37.7358 38.508L37.7074 49.1482C37.7054 49.9667 37.0389 50.6326 36.222 50.6326H20.6244C19.8053 50.6326 19.1389 49.965 19.1389 49.1442V38.5091C19.1389 38.3653 19.0764 38.2285 18.9676 38.1344C18.6896 37.894 18.4477 37.6003 18.2483 37.2613C18.1417 37.0799 17.8891 36.979 17.6869 37.0356C17.6708 37.0401 16.0502 37.4865 14.1854 37.3097C10.9102 36.9996 7.62841 33.953 9.20347 30.45L10.9603 26.5429L14.7448 28.3762L13.4352 31.4052C13.2451 31.8447 13.7557 32.2778 14.1583 32.0183C15.5301 31.1348 17.3149 31.138 18.1037 32.7713C18.248 33.0776 18.6655 33.1494 18.9038 32.909C20.5747 31.2236 22.9443 31.4055 25.1192 31.4053C25.3285 33.0505 26.7362 34.3269 28.4373 34.3269C30.1385 34.3269 31.5463 33.0503 31.7554 31.4048C33.9314 31.4046 36.2963 31.22 37.9708 32.909C38.2084 33.1488 38.6241 33.0762 38.7699 32.7732C39.5618 31.1438 41.3365 31.1296 42.7163 32.0183C43.119 32.278 43.6293 31.8445 43.4394 31.4052L42.1166 28.3459L45.9008 26.5127L47.6709 30.4498C48.1807 31.5831 48.187 32.8641 47.6887 33.9645Z" fill="#2A2A2A" stroke="#2A2A2A" stroke-width="0.0868056"/>
</svg>
