<svg width="56" height="56" viewBox="0 0 56 56" fill="none" xmlns="http://www.w3.org/2000/svg">
<path d="M46.4543 9.17155C42.2351 7.67527 38.9673 7.91153 36.0866 8.12153C33.1338 8.33153 31.5196 8.42669 28.8293 7.61949C27.2675 7.15355 25.7911 6.71057 21.4373 7.24214C15.9648 7.90824 12.6904 9.06654 10.4791 11.1174C6.61745 14.7005 5.48882 26.989 9.5834 35.1267C10.7448 37.4236 13.2482 37.4006 15.3513 36.9872C15.913 38.1543 16.9004 39.062 18.1105 39.5236C19.6846 40.0925 21.4144 40.0525 22.9605 39.4114C24.5065 38.7703 25.7572 37.5744 26.467 36.0585C27.1232 36.1406 29.2098 36.5967 29.3115 39.1758V48.3437C29.3115 48.5178 29.3807 48.6847 29.5037 48.8078C29.6268 48.9309 29.7937 49 29.9677 49C30.1418 49 30.3087 48.9309 30.4317 48.8078C30.5548 48.6847 30.6239 48.5178 30.6239 48.3437V30.2966C33.37 28.9053 35.8996 27.6945 37.8813 27.1104C44.9254 25.0465 48.8625 18.7628 48.997 13.9229C49.0594 11.498 48.1342 9.76546 46.4543 9.17155ZM22.543 38.1717C21.3003 38.7347 19.8858 38.7854 18.6059 38.3128C17.7934 38.004 17.112 37.4246 16.6767 36.6721C19.3015 35.9306 22.3823 34.4934 25.5155 32.9118C26.0569 34.8904 24.8134 37.1873 22.543 38.1717ZM29.3115 35.9929C28.6299 35.3586 27.7762 34.9397 26.8574 34.7887C27.0126 33.9629 26.9539 33.1112 26.6868 32.3146L29.3115 30.9692V35.9929ZM47.6847 13.8901C47.5666 18.2673 43.9608 23.9505 37.5138 25.8537C34.8891 26.6281 31.4245 28.4033 27.7728 30.2966C21.9 33.3187 15.2463 36.7443 12.1327 35.7304C11.834 35.6399 11.5575 35.4881 11.3208 35.2847C11.0841 35.0813 10.8924 34.8308 10.758 34.5491C6.67323 26.4443 8.24151 14.986 11.3748 12.0788C13.3433 10.2577 16.4897 9.16498 21.5916 8.54482C23.9308 8.25934 25.9322 8.13137 28.2256 8.8106L28.2518 8.82701C28.3076 8.85982 33.8294 12.0197 33.7703 15.5865C33.7703 15.7605 33.8394 15.9275 33.9625 16.0505C34.0856 16.1736 34.2525 16.2428 34.4265 16.2428C34.6005 16.2428 34.7674 16.1736 34.8905 16.0505C35.0135 15.9275 35.0827 15.7605 35.0827 15.5865C35.122 13.1091 33.183 10.927 31.4737 9.48327C31.6935 9.50296 34.8136 9.50952 36.1883 9.4078C39.0788 9.20108 42.0645 8.98451 46.0311 10.3922C47.1236 10.8024 47.7306 12.0689 47.6847 13.8901Z" fill="#2A2A2A"/>
</svg>
