<svg width="56" height="56" viewBox="0 0 56 56" fill="none" xmlns="http://www.w3.org/2000/svg">
<path d="M22.0887 48.2411C19.2582 48.2411 16.5544 46.678 14.8645 44.1009C11.7382 39.0735 11.4425 30.7931 11.4425 29.8637C11.4002 28.0048 13.0056 25.7235 15.6672 23.8646C17.695 22.4704 20.1454 21.541 22.7224 21.1608C22.9759 21.1185 23.2294 21.2875 23.2716 21.541C23.3139 21.7945 23.1449 22.048 22.8914 22.0902C20.3988 22.4282 18.1175 23.3154 16.2164 24.625C13.3858 26.6106 12.3719 28.6385 12.4141 29.8214C12.4141 30.7086 12.7099 38.7778 15.7094 43.594C17.2303 45.9176 19.5962 47.2695 22.131 47.2695C24.6658 47.2695 27.0739 45.8753 28.5525 43.594C29.0172 42.8758 29.3975 42.2421 29.7777 41.5661C29.9044 41.3549 30.2002 41.2704 30.4114 41.3971C30.6226 41.5239 30.7071 41.8196 30.5804 42.0308C30.2002 42.7068 29.8199 43.3827 29.313 44.1009C27.6653 46.678 24.9615 48.2411 22.0887 48.2411Z" fill="#2A2A2A" stroke="#2A2A2A" stroke-width="0.173611"/>
<path d="M12.5831 36.6231C12.4986 36.6231 12.4141 36.6231 12.3296 36.5808C7.59796 33.877 6.45728 27.371 6.96425 22.1746C7.55571 16.3445 12.0339 11.3171 17.6105 10.1764C17.864 10.1341 18.1175 10.3031 18.1597 10.5566C18.202 10.8101 18.033 11.0636 17.7795 11.1058C11.8649 12.331 8.31616 17.6541 7.85144 22.2591C7.34447 27.1597 8.40065 33.2433 12.7943 35.7359C13.0056 35.8626 13.0901 36.1583 12.9633 36.3696C12.9211 36.5386 12.7521 36.6231 12.5831 36.6231Z" fill="#2A2A2A" stroke="#2A2A2A" stroke-width="0.173611"/>
<path d="M32.0167 33.4548C31.8055 33.4548 31.6365 33.328 31.552 33.1168C30.7916 30.4975 28.9327 29.2301 27.4118 28.2584C26.9471 27.9626 26.5246 27.6669 26.1444 27.3712C24.1588 25.7658 22.7646 23.4422 22.0464 20.7384C21.4972 18.6683 20.3988 17.4009 20.3988 17.3586L20.3565 17.3164C19.5116 16.0912 18.3709 14.4436 17.8217 13.4297C17.1458 12.1622 17.019 10.6836 17.4837 9.33169C17.9485 8.02203 19.0046 6.96585 20.2721 6.45889H20.3143C21.8352 5.90967 23.6096 5.82518 25.5529 6.24765C25.8064 6.2899 26.0599 6.37439 26.3979 6.50113C31.6365 8.19102 35.6922 12.6692 36.9174 18.1191C37.3399 20.0202 37.5511 22.0058 37.5089 24.0759C37.4666 26.822 37.0019 29.2301 36.157 31.2579C36.0725 31.5114 35.7767 31.5959 35.5232 31.5114C35.2698 31.4269 35.1853 31.1312 35.2698 30.8777C36.0725 28.9766 36.4949 26.653 36.5372 24.0337C36.5794 22.0481 36.3682 20.1469 35.9457 18.3303C34.8895 13.2184 31.0873 9.03596 26.1444 7.43057C25.8487 7.30383 25.5952 7.26158 25.3839 7.17709C23.6518 6.79686 22.0464 6.83911 20.6945 7.34608H20.6523C19.5961 7.76855 18.7934 8.61349 18.4132 9.66966C18.033 10.7681 18.1175 11.951 18.6667 12.9649C19.2159 13.9789 20.441 15.7532 21.1592 16.7249C21.3282 16.9362 22.4267 18.2881 23.0181 20.4427C23.6518 22.9352 24.9615 25.0898 26.7781 26.5685C27.1161 26.822 27.4963 27.1177 27.961 27.3712C29.5242 28.3851 31.6788 29.7793 32.5237 32.7788C32.6082 33.0323 32.4392 33.2858 32.1857 33.3703C32.1012 33.4548 32.059 33.4548 32.0167 33.4548Z" fill="#2A2A2A" stroke="#2A2A2A" stroke-width="0.173611"/>
<path d="M13.0477 18.416C12.9632 18.416 12.8787 18.3737 12.7942 18.3315C12.583 18.2047 12.4985 17.909 12.6252 17.6978C14.9066 13.9378 18.3708 13.3463 18.4976 13.3463C18.751 13.3041 19.0045 13.4731 19.0468 13.7265C19.089 13.98 18.92 14.2335 18.6666 14.2757C18.6243 14.2757 15.498 14.825 13.4279 18.2047C13.3434 18.3737 13.2167 18.416 13.0477 18.416Z" fill="#2A2A2A" stroke="#2A2A2A" stroke-width="0.173611"/>
<path d="M15.3714 21.4996C15.2869 21.4996 15.2024 21.4996 15.1179 21.4574C14.9067 21.3307 14.8222 21.0349 14.949 20.8237C16.9346 17.2749 20.5256 16.6835 20.6523 16.6412C20.9058 16.599 21.1593 16.768 21.2015 17.0215C21.2438 17.2749 21.0748 17.5284 20.8213 17.5707C20.7791 17.5707 17.5683 18.1621 15.7939 21.2884C15.7094 21.4152 15.5404 21.4996 15.3714 21.4996Z" fill="#2A2A2A" stroke="#2A2A2A" stroke-width="0.173611"/>
<path d="M28.9327 28.8492C28.8482 28.8492 28.7215 28.807 28.637 28.7647C28.4258 28.5958 28.3835 28.3 28.5103 28.0888C29.6932 26.4412 30.1156 24.2866 29.6087 22.3009C29.5242 22.0475 29.6932 21.794 29.9467 21.7095C30.2001 21.625 30.4536 21.794 30.5381 22.0475C31.0873 24.2866 30.6226 26.7369 29.2707 28.638C29.2285 28.807 29.0595 28.8492 28.9327 28.8492Z" fill="#2A2A2A" stroke="#2A2A2A" stroke-width="0.173611"/>
<path d="M31.3407 31.8496C31.214 31.8496 31.0872 31.8074 31.0027 31.7229C30.8337 31.5539 30.8337 31.2159 31.0027 31.0469C31.045 31.0047 34.3825 27.6672 33.2841 22.3018C33.2418 22.0483 33.4108 21.7948 33.6643 21.7526C33.9178 21.7103 34.1713 21.8793 34.2135 22.1328C35.3964 28.0051 31.8054 31.5961 31.6787 31.7229C31.5942 31.8074 31.4674 31.8496 31.3407 31.8496Z" fill="#2A2A2A" stroke="#2A2A2A" stroke-width="0.173611"/>
<path d="M47.1411 48.2418H33.5798C32.5659 48.2418 31.7209 47.3969 31.7209 46.3829V38.187C31.7209 37.1731 32.5659 36.3281 33.5798 36.3281H47.1411C48.1551 36.3281 49 37.1731 49 38.187V46.3829C49 47.3969 48.1551 48.2418 47.1411 48.2418ZM33.5798 37.2998C33.0729 37.2998 32.6926 37.68 32.6926 38.187V46.3829C32.6926 46.8899 33.0729 47.2701 33.5798 47.2701H47.1411C47.6481 47.2701 48.0283 46.8899 48.0283 46.3829V38.187C48.0283 37.68 47.6481 37.2998 47.1411 37.2998H33.5798Z" fill="#2A2A2A" stroke="#2A2A2A" stroke-width="0.173611"/>
<path d="M45.6202 37.2993C45.3667 37.2993 45.1555 37.0881 45.1555 36.8346V33.4548H35.6077V36.8346C35.6077 37.0881 35.3964 37.2993 35.1429 37.2993C34.8895 37.2993 34.6782 37.0881 34.6782 36.8346V32.9901C34.6782 32.7366 34.8895 32.5254 35.1429 32.5254H45.6625C45.9159 32.5254 46.1272 32.7366 46.1272 32.9901V36.8346C46.0849 37.0881 45.8737 37.2993 45.6202 37.2993Z" fill="#2A2A2A" stroke="#2A2A2A" stroke-width="0.173611"/>
<path d="M40.3817 44.8622C40.1282 44.8622 39.917 44.651 39.917 44.3975V40.0038C39.917 39.7503 40.1282 39.5391 40.3817 39.5391C40.6352 39.5391 40.8464 39.7503 40.8464 40.0038V44.3975C40.8464 44.651 40.6352 44.8622 40.3817 44.8622Z" fill="#2A2A2A" stroke="#2A2A2A" stroke-width="0.173611"/>
<path d="M42.5786 42.6658H38.1849C37.9315 42.6658 37.7202 42.4545 37.7202 42.201C37.7202 41.9476 37.9315 41.7363 38.1849 41.7363H42.5786C42.8321 41.7363 43.0433 41.9476 43.0433 42.201C43.0433 42.4545 42.8321 42.6658 42.5786 42.6658Z" fill="#2A2A2A" stroke="#2A2A2A" stroke-width="0.173611"/>
</svg>
