<svg width="64" height="64" viewBox="0 0 64 64" fill="none" xmlns="http://www.w3.org/2000/svg">
<path d="M49.7656 25.6507L49.0682 24.539C48.9935 24.42 48.9177 24.3019 48.8407 24.1845C45.9947 19.848 41.401 16.7633 36.2077 15.6879C36.9981 14.9985 37.6305 14.1466 38.0618 13.1905C38.493 12.2344 38.7129 11.1965 38.7066 10.1476C38.7066 6.20637 35.6693 3 31.9359 3C28.2026 3 25.1653 6.20637 25.1653 10.1476C25.1589 11.1985 25.3797 12.2383 25.8126 13.1959C26.2455 14.1535 26.8803 15.0062 27.6734 15.6957C22.6168 16.7738 18.2655 19.6528 15.3994 23.8268C15.24 24.059 15.0827 24.2986 14.9317 24.5392L14.2344 25.6507C13.3009 27.1488 12.8784 28.9093 13.0303 30.668C13.1822 32.4267 13.9003 34.0886 15.0769 35.4045L21.0145 42.0037L15.546 58.3453C15.4538 58.6207 15.4285 58.9142 15.472 59.2014C15.5156 59.4886 15.6268 59.7613 15.7965 59.9971C15.9662 60.2329 16.1895 60.4249 16.4481 60.5574C16.7066 60.6898 16.9929 60.7589 17.2834 60.7589H23.1806C23.5706 60.7606 23.9509 60.6371 24.2654 60.4065C24.5799 60.176 24.8121 59.8505 24.9278 59.4781L30.8515 41.1742C30.9295 40.9319 31.0822 40.7205 31.2878 40.5704C31.4934 40.4203 31.7412 40.3391 31.9957 40.3386H32C32.2554 40.338 32.5042 40.4186 32.7107 40.5688C32.9172 40.719 33.0705 40.931 33.1486 41.1742L39.0697 59.4702C39.1846 59.8443 39.4166 60.1715 39.7317 60.4036C40.0468 60.6356 40.4281 60.7602 40.8194 60.7589H46.7166C47.0071 60.7589 47.2934 60.6898 47.5519 60.5574C47.8105 60.4249 48.0338 60.2329 48.2036 59.9971C48.3733 59.7614 48.4845 59.4886 48.528 59.2014C48.5716 58.9142 48.5462 58.6207 48.454 58.3453L42.9855 42.0037L48.9231 35.4045C50.0997 34.0886 50.8178 32.4266 50.9697 30.668C51.1216 28.9093 50.6991 27.1488 49.7656 25.6507ZM26.5615 10.1476C26.5615 6.97626 28.9725 4.39617 31.936 4.39617C34.8995 4.39617 37.3104 6.97626 37.3104 10.1476C37.3104 13.319 34.8995 15.899 31.936 15.899C28.9725 15.899 26.5615 13.3189 26.5615 10.1476ZM42.4764 40.4823L41.7586 38.3374C41.4018 37.2723 41.2185 36.1568 41.2156 35.0336L41.2154 34.9291L43.8959 31.3942C44.2058 30.9849 44.372 30.4848 44.3685 29.9715C44.3651 29.4581 44.1924 28.9603 43.8771 28.5551L41.9774 26.1182C41.8211 25.9177 41.606 25.771 41.3622 25.6987C41.1184 25.6264 40.8582 25.6322 40.6178 25.7152C40.3775 25.7982 40.1691 25.9542 40.0218 26.1615C39.8745 26.3688 39.7957 26.6169 39.7965 26.8712L39.8183 34.6352C39.8144 34.6788 39.8145 34.7226 39.8187 34.7662L39.8195 35.0374C39.8227 36.31 40.0304 37.5738 40.4346 38.7805L47.13 58.7884C47.152 58.8539 47.158 58.9238 47.1477 58.9921C47.1373 59.0605 47.1108 59.1254 47.0705 59.1815C47.0301 59.2376 46.9769 59.2833 46.9154 59.3148C46.8538 59.3463 46.7857 59.3627 46.7166 59.3627H40.8194C40.725 59.3626 40.6331 59.3319 40.5576 59.2752C40.4821 59.2185 40.427 59.1388 40.4006 59.0481L34.4769 40.7442C34.3086 40.22 33.9779 39.7628 33.5326 39.4389C33.0874 39.115 32.5506 38.9411 32 38.9424H31.9909C31.442 38.9436 30.9075 39.1185 30.4642 39.4422C30.0208 39.7659 29.6914 40.2217 29.5232 40.7442L23.5969 59.0561C23.5696 59.1451 23.5144 59.223 23.4395 59.2782C23.3645 59.3334 23.2738 59.3631 23.1806 59.3628H17.2834C17.2143 59.3628 17.1462 59.3463 17.0846 59.3148C17.0231 59.2833 16.97 59.2376 16.9296 59.1815C16.8892 59.1254 16.8627 59.0605 16.8524 58.9921C16.842 58.9238 16.8481 58.854 16.87 58.7884L23.5655 38.7806C23.9696 37.5738 24.1773 36.31 24.1805 35.0375L24.1813 34.7668C24.1856 34.7229 24.1857 34.6787 24.1817 34.6348L24.2036 26.8712C24.2043 26.617 24.1255 26.3688 23.9783 26.1616C23.831 25.9543 23.6226 25.7982 23.3822 25.7153C23.1419 25.6323 22.8816 25.6265 22.6378 25.6988C22.3941 25.771 22.179 25.9177 22.0227 26.1183L20.1229 28.5552C19.8077 28.9603 19.6349 29.4581 19.6315 29.9714C19.6281 30.4847 19.7942 30.9848 20.104 31.3941L22.7846 34.9291L22.7844 35.0336C22.7815 36.1568 22.5982 37.2723 22.2414 38.3374L21.5237 40.4823L16.1149 34.4708C15.1404 33.3809 14.5457 32.0045 14.4199 30.548C14.294 29.0915 14.6439 27.6334 15.4171 26.3926L16.1143 25.2813C16.2551 25.057 16.4019 24.8335 16.5504 24.6172C19.2596 20.6715 23.4015 17.9694 28.2131 17.0084L29.3974 16.7719C30.1994 17.1172 31.0634 17.2952 31.9366 17.2951C32.8098 17.2951 33.6737 17.1169 34.4757 16.7715L35.6858 17.0056C40.6167 17.96 44.9861 20.8558 47.6734 24.9503C47.7452 25.0599 47.8159 25.1702 47.8857 25.2812L48.5829 26.3926C49.3561 27.6334 49.706 29.0914 49.5802 30.5479C49.4544 32.0044 48.8596 33.3808 47.8852 34.4706L42.4764 40.4823ZM41.2089 32.6271L41.1941 27.3843L42.776 29.4134C42.9023 29.5756 42.9715 29.7751 42.9728 29.9807C42.9742 30.1863 42.9077 30.3866 42.7836 30.5505L41.2089 32.6271ZM22.7912 32.6271L21.2165 30.5504C21.0924 30.3865 21.0259 30.1862 21.0273 29.9806C21.0286 29.7751 21.0978 29.5757 21.2241 29.4134L22.806 27.3842L22.7912 32.6271Z" fill="#3A3A3A"/>
<path d="M42.6743 13.8659H44.3155V15.5071C44.3155 15.6923 44.389 15.8698 44.5199 16.0008C44.6509 16.1317 44.8284 16.2052 45.0136 16.2052C45.1987 16.2052 45.3763 16.1317 45.5072 16.0008C45.6381 15.8698 45.7116 15.6923 45.7116 15.5071V13.8659H47.3528C47.538 13.8659 47.7155 13.7924 47.8464 13.6615C47.9774 13.5305 48.0509 13.353 48.0509 13.1678C48.0509 12.9827 47.9774 12.8051 47.8464 12.6742C47.7155 12.5433 47.538 12.4698 47.3528 12.4698H45.7116V10.8286C45.7116 10.6435 45.6381 10.4659 45.5072 10.335C45.3763 10.2041 45.1987 10.1306 45.0136 10.1306C44.8284 10.1306 44.6509 10.2041 44.5199 10.335C44.389 10.4659 44.3155 10.6435 44.3155 10.8286V12.4698H42.6743C42.4891 12.4698 42.3116 12.5433 42.1807 12.6742C42.0497 12.8051 41.9762 12.9827 41.9762 13.1678C41.9762 13.353 42.0497 13.5305 42.1807 13.6615C42.3116 13.7924 42.4891 13.8659 42.6743 13.8659Z" fill="#3A3A3A"/>
<path d="M34.3841 22.4512C33.4827 22.452 32.6127 22.7821 31.9376 23.3794C31.4021 22.9051 30.7403 22.5966 30.0327 22.4913C29.3251 22.3861 28.6022 22.4887 27.9518 22.7866C27.3015 23.0845 26.7516 23.5649 26.3692 24.1695C25.9867 24.774 25.7881 25.4766 25.7974 26.1919C25.7996 27.0267 25.9942 27.8498 26.3659 28.5973C26.7377 29.3447 27.2768 29.9964 27.9412 30.5019L30.9362 32.7677C31.2246 32.9845 31.5757 33.1017 31.9366 33.1017C32.2975 33.1017 32.6486 32.9844 32.937 32.7676L35.9319 30.5019C36.5963 29.9964 37.1353 29.3447 37.5071 28.5972C37.8789 27.8498 38.0734 27.0267 38.0756 26.1919V26.1427C38.0745 25.164 37.6852 24.2257 36.9931 23.5336C36.3011 22.8416 35.3628 22.4523 34.3841 22.4512ZM36.6794 26.1919C36.6778 26.8111 36.5335 27.4215 36.2578 27.9759C35.982 28.5302 35.5823 29.0136 35.0895 29.3884L32.0947 31.6541C32.0491 31.6884 31.9936 31.7069 31.9365 31.7069C31.8794 31.7069 31.8239 31.6884 31.7783 31.6541L28.7835 29.3884C28.2907 29.0136 27.8909 28.5302 27.6152 27.9759C27.3395 27.4215 27.1952 26.8111 27.1936 26.1919C27.1858 25.5936 27.4099 25.0155 27.8189 24.5788C28.228 24.1421 28.7902 23.8808 29.3878 23.8495C29.4213 23.8482 29.4548 23.8474 29.4883 23.8474C29.8566 23.8468 30.2196 23.9352 30.5465 24.1048C30.8734 24.2745 31.1545 24.5204 31.3661 24.8219C31.4306 24.9132 31.516 24.9878 31.6153 25.0392C31.7145 25.0907 31.8247 25.1175 31.9365 25.1175C32.0483 25.1175 32.1584 25.0907 32.2577 25.0393C32.3569 24.9878 32.4423 24.9133 32.5068 24.822C32.7874 24.4231 33.1878 24.124 33.6499 23.968C34.112 23.812 34.6117 23.8072 35.0767 23.9544C35.5417 24.1016 35.9477 24.393 36.2359 24.7865C36.524 25.18 36.6794 25.655 36.6793 26.1427L36.6794 26.1919Z" fill="#3A3A3A"/>
</svg>
