<svg width="56" height="56" viewBox="0 0 56 56" fill="none" xmlns="http://www.w3.org/2000/svg">
<path d="M43.5923 32.7292C41.4812 32.7292 39.6498 34.2047 39.1811 36.2196L30.9155 28.7662C31.629 27.7695 32.0053 26.6066 32.0053 25.3921C32.0053 23.9206 31.4555 22.5268 30.453 21.4445L36.6961 15.196C37.3726 15.5687 38.1279 15.7649 38.8906 15.7649C41.3898 15.7649 43.4227 13.7449 43.4227 11.2619C43.4227 8.779 41.3893 6.75894 38.8906 6.75894C36.3918 6.75894 34.359 8.779 34.359 11.2619C34.359 12.5485 34.9064 13.7574 35.8695 14.6145L29.7183 20.7722C28.6948 19.9854 27.4286 19.5543 26.1304 19.5543C24.8476 19.5543 23.5929 19.9775 22.5738 20.7496L15.7188 12.8202C16.5066 11.9829 16.9382 10.9017 16.9382 9.753C16.9382 7.27005 14.9053 5.25 12.4066 5.25C9.90788 5.25 7.875 7.27005 7.875 9.753C7.875 12.2359 9.90788 14.256 12.4066 14.256C13.3251 14.256 14.2037 13.9837 14.9601 13.4658L21.8334 21.4161C20.8138 22.5019 20.255 23.9059 20.255 25.3921C20.255 28.0328 22.0909 30.3739 24.6507 31.0393L22.14 42.7222C21.8232 42.6536 21.5063 42.619 21.1952 42.619C18.6965 42.619 16.6636 44.6391 16.6636 47.122C16.6636 49.6049 18.6965 51.625 21.1952 51.625C23.6939 51.625 25.7268 49.6049 25.7268 47.122C25.7268 45.3572 24.6992 43.7723 23.0945 43.0348L25.6366 31.2072C25.8118 31.2225 25.9751 31.2305 26.1315 31.2305C27.698 31.2305 29.1594 30.6263 30.2698 29.5241L39.0727 37.4602C39.1931 39.8643 41.1615 41.7346 43.5934 41.7346C46.0921 41.7346 48.125 39.7146 48.125 37.2316C48.125 34.7487 46.091 32.7292 43.5923 32.7292ZM35.3586 11.2625C35.3586 9.32698 36.9433 7.75223 38.8917 7.75223C40.8395 7.75223 42.4243 9.32698 42.4243 11.2625C42.4243 13.198 40.8401 14.7728 38.8917 14.7728C36.9433 14.7728 35.3586 13.198 35.3586 11.2625ZM12.4066 13.2633C10.4588 13.2633 8.87403 11.6885 8.87403 9.753C8.87403 7.81747 10.4588 6.24272 12.4066 6.24272C14.3544 6.24272 15.9392 7.81747 15.9392 9.753C15.9392 11.6885 14.3544 13.2633 12.4066 13.2633ZM24.7278 47.122C24.7278 49.0575 23.143 50.6323 21.1952 50.6323C19.2474 50.6323 17.6626 49.0581 17.6626 47.122C17.6626 45.1859 19.2474 43.6117 21.1952 43.6117C23.143 43.6117 24.7278 45.1859 24.7278 47.122ZM26.131 30.2377C23.4421 30.2377 21.2546 28.064 21.2546 25.3921C21.2546 22.7208 23.4421 20.547 26.131 20.547C28.8198 20.547 31.0068 22.7208 31.0068 25.3921C31.0068 28.064 28.8198 30.2377 26.131 30.2377ZM43.5923 40.7419C41.6439 40.7419 40.0591 39.1677 40.0591 37.2316C40.0603 35.2955 41.645 33.7208 43.5923 33.7208C45.5401 33.7208 47.1248 35.2955 47.1248 37.2316C47.1248 39.1677 45.5407 40.7419 43.5923 40.7419Z" fill="#2A2A2A" stroke="#2A2A2A" stroke-width="0.260417"/>
</svg>
