<svg width="56" height="56" viewBox="0 0 56 56" fill="none" xmlns="http://www.w3.org/2000/svg">
<path d="M27.7135 33.8762L26.9706 33.1333L40.0813 20.0226C40.7805 19.3234 41.8294 19.1922 42.7034 19.673C44.4515 20.6344 46.6366 20.1974 47.904 18.6241C49.084 17.1382 49.084 14.9968 47.8603 13.5109C46.9862 12.4621 45.7626 11.9377 44.4078 12.0251L43.8397 12.0688L43.8834 11.5006C43.9708 10.1459 43.4026 8.87849 42.3975 8.04814C40.9116 6.82448 38.7702 6.82448 37.2843 8.00444C35.711 9.27181 35.274 11.4569 36.2355 13.205C36.7162 14.0791 36.5851 15.1279 35.8858 15.8272L23.9114 27.8453L23.1685 27.1024L35.1429 15.1279C35.4925 14.7783 35.5799 14.2102 35.3177 13.7295C34.094 11.5443 34.6185 8.79108 36.5851 7.2178C38.4643 5.73192 41.1738 5.77562 43.053 7.2615C44.233 8.22295 44.8885 9.57773 44.9322 11.0199C46.4181 11.0636 47.7292 11.7628 48.6906 12.8991C50.2202 14.7346 50.2202 17.4442 48.7343 19.3234C47.161 21.29 44.4078 21.8144 42.2227 20.5907C41.742 20.3285 41.1738 20.3722 40.8242 20.7655L27.7135 33.8762Z" fill="#2A2A2A" stroke="#2A2A2A" stroke-width="0.347222"/>
<path d="M16.1323 49.8287C14.9961 49.8287 13.8161 49.4354 12.8984 48.6925C11.7184 47.731 11.0629 46.3763 11.0192 44.9341C9.53329 44.8904 8.22222 44.1911 7.26077 43.0549C5.77489 41.1757 5.73119 38.4661 7.21707 36.6306C8.79035 34.664 11.5436 34.1396 13.7287 35.3633C14.2094 35.6255 14.7776 35.5818 15.1272 35.1885L23.1684 27.1035L23.9114 27.8465L15.8701 35.8877C15.1709 36.5869 14.122 36.718 13.248 36.2373C11.4999 35.2759 9.31478 35.7129 8.04741 37.2862C6.82375 38.7283 6.86745 40.9135 8.04741 42.3993C8.92146 43.4482 10.1451 43.9726 11.4999 43.8852L12.068 43.8415L12.0243 44.4096C11.9369 45.7644 12.4613 47.0318 13.5102 47.8621C14.9961 49.0858 17.1375 49.0858 18.6234 47.9058C20.1967 46.6385 20.6337 44.4533 19.6722 42.7053C19.1915 41.8312 19.3226 40.7824 20.0219 40.0831L27.2764 32.8285L28.0194 33.5715L20.8085 40.7824C20.4589 41.132 20.3715 41.7001 20.6337 42.1808C21.8574 44.3659 21.3329 47.1192 19.3663 48.6925C18.4049 49.4791 17.2686 49.8287 16.1323 49.8287Z" fill="#2A2A2A" stroke="#2A2A2A" stroke-width="0.347222"/>
</svg>
