<svg width="64" height="64" viewBox="0 0 64 64" fill="none" xmlns="http://www.w3.org/2000/svg">
<path d="M19.857 32.2801C21.9808 27.686 30.073 15.3902 32.0139 12.4614C32.2129 12.1611 32.6497 12.1648 32.8439 12.4683C34.6248 15.2521 41.7358 26.4171 44.6918 31.8045C48.0843 37.9874 45.1788 50.8289 32.4343 50.8289C19.6898 50.8289 17.4385 37.5118 19.857 32.2801Z" stroke="#3A3A3A" stroke-width="1.4"/>
<path d="M31.1072 30.3289L31.1071 34.936H26.5C26.2239 34.936 26 35.1599 26 35.436V37.2217C26 37.4979 26.2239 37.7217 26.5 37.7217H31.1072L31.1071 42.3289C31.1071 42.605 31.331 42.8289 31.6071 42.8289H33.3929C33.669 42.8289 33.8929 42.605 33.8929 42.3289L33.8929 37.7217H38.5C38.7761 37.7217 39 37.4979 39 37.2217V35.436C39 35.1599 38.7761 34.936 38.5 34.936H33.8929V30.3289C33.8929 30.0527 33.669 29.8289 33.3929 29.8289H31.6072C31.331 29.8289 31.1072 30.0527 31.1072 30.3289Z" stroke="#3A3A3A" stroke-width="1.4"/>
<path d="M51 19.1773C44.5 2.32886 14.7805 0.827221 10.3902 28.3608M10.3902 28.3608H6L10.3902 33.8289L14.7805 28.3608H10.3902Z" stroke="#3A3A3A" stroke-width="1.4" stroke-linecap="round" stroke-linejoin="round"/>
<path d="M11.5 42.3289C23.5 68.8289 55.5 56.4505 54 35.4261M54 35.4261H58L54 29.8288L50 35.4261H54Z" stroke="#3A3A3A" stroke-width="1.4" stroke-linecap="round" stroke-linejoin="round"/>
</svg>
