<svg width="56" height="56" viewBox="0 0 56 56" fill="none" xmlns="http://www.w3.org/2000/svg">
<path d="M48.8448 31.4444C48.7928 31.4189 47.5525 30.8172 45.5902 29.8739C39.2207 26.8123 25.2824 20.1745 20.102 18.2022C20.2114 15.7117 21.5064 14.0349 22.0369 13.4405C24.0973 14.3701 36.7507 20.0605 47.5612 27.8756C47.7646 28.0229 48.0475 27.9773 48.1948 27.7729C48.3421 27.5686 48.2897 27.2835 48.0858 27.1362C36.248 18.5785 22.317 12.432 22.1779 12.3709L21.8755 12.25L21.6022 12.4557C21.506 12.5456 19.2887 14.5722 19.0009 17.8213L16.8287 17.0965C16.5897 17.0153 16.3315 17.1458 16.2517 17.3848C16.1719 17.6238 16.3005 17.882 16.54 17.9618C16.54 17.9618 19.5961 18.9562 21.6656 19.8589C20.7429 22.0005 17.268 31.6834 25.4379 40.304C25.4904 40.3597 25.5538 40.4026 25.6122 40.4514C25.1391 40.9326 24.4235 41.7249 24.5238 42.4771C24.5366 42.5729 24.6137 42.9337 25.0611 42.9337C27.4413 42.9337 35.983 42.0871 46.508 31.3322C47.693 31.901 48.4078 32.2463 48.447 32.265C48.5113 32.296 48.5789 32.3111 48.6459 32.3111C48.8151 32.3111 48.9775 32.2167 49.0564 32.0543C49.1664 31.8276 49.0715 31.5543 48.8448 31.4444ZM22.7047 34.7866C26.7023 28.0179 22.2559 23.7347 21.5612 23.1271C21.8558 21.8705 22.2125 20.9098 22.442 20.3602C23.5864 21.3578 26.5933 24.3309 27.0946 28.4165C27.4568 31.366 26.4537 34.3318 24.1192 37.2333C23.5577 36.4173 23.0915 35.5994 22.7047 34.7866ZM24.6661 37.9923C24.6798 37.9795 24.6971 37.9736 24.7095 37.959C27.2953 34.8071 28.4024 31.5566 27.9996 28.2975C27.6069 25.1182 25.874 22.6222 24.4631 21.0636C30.6128 23.7708 39.4843 27.9732 44.5361 30.3871C37.8796 35.8667 33.0824 39.036 27.2889 40.0071C26.8237 40.0851 26.3671 39.9587 26.0998 39.6764C25.5711 39.119 25.0963 38.5566 24.6661 37.9923ZM25.5948 42.0045C25.7627 41.6337 26.1431 41.1931 26.4852 40.8788C26.6558 40.9171 26.831 40.9431 27.013 40.9431C27.1535 40.9431 27.2962 40.9317 27.4399 40.9075C33.5308 39.8862 38.4931 36.5701 45.4447 30.8222C45.5104 30.8537 45.5738 30.8843 45.6377 30.9148C36.0405 40.6142 28.0808 41.8659 25.5948 42.0045Z" fill="#2A2A2A" stroke="#2A2A2A" stroke-width="0.173611"/>
<path d="M18.0567 28.3058C18.0567 28.0535 17.8528 27.8496 17.6005 27.8496H8.02157C7.76932 27.8496 7.56543 28.0535 7.56543 28.3058C7.56543 28.558 7.76932 28.7619 8.02157 28.7619H17.6005C17.8528 28.7619 18.0567 28.558 18.0567 28.3058Z" fill="#2A2A2A" stroke="#2A2A2A" stroke-width="0.173611"/>
<path d="M18.1521 24.0312L9.19353 20.4528C8.95953 20.3588 8.69406 20.4733 8.60055 20.7073C8.50704 20.9413 8.62108 21.2068 8.85508 21.3003L17.8137 24.8787C17.8693 24.9011 17.9264 24.9111 17.9829 24.9111C18.1635 24.9111 18.3351 24.8025 18.4067 24.6242C18.5002 24.3902 18.3861 24.1247 18.1521 24.0312Z" fill="#2A2A2A" stroke="#2A2A2A" stroke-width="0.173611"/>
<path d="M17.8137 31.6165L8.85508 35.1944C8.62108 35.288 8.50704 35.5534 8.60055 35.7874C8.67171 35.9658 8.84322 36.0743 9.0243 36.0743C9.08087 36.0743 9.13788 36.0643 9.19353 36.042L18.1521 32.464C18.3861 32.3705 18.5002 32.105 18.4067 31.871C18.3132 31.637 18.0472 31.5234 17.8137 31.6165Z" fill="#2A2A2A" stroke="#2A2A2A" stroke-width="0.173611"/>
</svg>
