<svg width="40" height="40" viewBox="0 0 40 40" fill="none" xmlns="http://www.w3.org/2000/svg">
<path d="M34.2013 10.3875C34.0566 9.56824 33.2619 8.96238 32.9209 8.8103C32.6952 8.70973 32.5162 8.63124 26.774 10.3875C24.0758 11.2141 21.0171 12.1879 20.4873 12.394C19.9574 12.6 18.0712 13.0832 16.5087 13.4659C16.723 13.2259 16.9506 12.9983 17.1906 12.784C18.3263 11.7906 19.0229 10.2305 19.1529 8.39331C19.2314 7.19876 18.8242 6.24214 18.0614 5.82269C17.7941 5.67485 17.4898 5.60754 17.1851 5.62886C16.8804 5.65019 16.5884 5.75925 16.3443 5.94288C15.8538 6.31327 15.4368 6.94121 14.9609 7.6599C14.5513 8.32891 14.0808 8.9587 13.5554 9.54126C12.9911 10.0987 12.3843 10.6113 11.7403 11.0743C10.9996 11.5952 10.3113 12.1866 9.68477 12.8404C9.41741 13.1396 9.13532 13.461 8.84588 13.7921C8.00123 14.7956 7.10039 15.7505 6.14771 16.6522C4.93354 17.7461 4.44051 20.4885 4.38164 20.7975C4.36034 20.9257 4.39073 21.057 4.46615 21.1628C4.54156 21.2685 4.65583 21.3401 4.78391 21.3617H4.86486C4.98209 21.3633 5.09601 21.3229 5.186 21.2477C5.276 21.1726 5.3361 21.0677 5.35543 20.9521C5.48053 20.2162 5.98828 18.1043 6.80754 17.3758C7.78952 16.4494 8.71664 15.4666 9.5842 14.4323C9.87119 14.1036 10.1508 13.7847 10.4157 13.4904C10.9981 12.8868 11.6372 12.3405 12.3241 11.8592C13.0092 11.3696 13.6547 10.8266 14.2545 10.2354C14.8238 9.6092 15.3329 8.93086 15.7753 8.20935C16.1825 7.58631 16.5676 6.99762 16.9257 6.73762C17.0195 6.66491 17.1329 6.62187 17.2513 6.614C17.3697 6.60614 17.4878 6.63381 17.5904 6.69347C17.9142 6.87007 18.2355 7.39008 18.1717 8.32463C18.0246 10.4513 17.09 11.5698 16.5455 12.0457C15.9517 12.6012 15.4106 13.2105 14.929 13.8657C14.7323 14.1609 14.5514 14.4663 14.3869 14.7806C13.9994 15.6563 14.0018 16.9637 14.0018 17.0176C14.0018 17.1478 14.0535 17.2725 14.1455 17.3645C14.2375 17.4565 14.3623 17.5082 14.4924 17.5082C14.6225 17.5082 14.7473 17.4565 14.8393 17.3645C14.9313 17.2725 14.983 17.1478 14.983 17.0176C14.9786 16.3926 15.0806 15.7713 15.2847 15.1804C15.3606 15.0105 15.4492 14.8465 15.5496 14.6899C16.5308 14.4568 19.9942 13.6204 20.8503 13.2893C22.089 12.7987 31.3977 9.92391 32.6241 9.73504C32.9217 9.9203 33.1448 10.2042 33.2545 10.5371C33.2674 10.6424 33.2513 10.7491 33.2081 10.8459C33.1649 10.9427 33.0961 11.0259 33.0092 11.0866C32.5456 11.5305 29.4795 12.7619 26.281 13.954H26.2687C25.6383 14.1993 22.0105 15.4895 21.5861 15.6416C21.1544 15.7176 18.8144 16.1567 17.8038 16.9465C16.7932 17.7363 16.7834 18.4943 16.8521 18.8892C16.9066 19.1542 17.02 19.4035 17.1839 19.6188C17.3478 19.834 17.558 20.0097 17.7989 20.1328C17.6781 20.2462 17.5726 20.3749 17.4849 20.5155C17.1587 21.0404 17.1096 21.683 17.3353 22.4262C17.4651 22.818 17.7446 23.1425 18.1129 23.3289C18.0501 23.3845 17.9903 23.4435 17.9338 23.5055C17.7196 23.7433 17.5646 24.0283 17.4815 24.3374C17.3984 24.6464 17.3895 24.9707 17.4555 25.2839C17.5188 25.5807 17.6523 25.8581 17.8447 26.0928C18.0372 26.3275 18.283 26.5127 18.5617 26.6329C18.9223 26.7924 19.6287 26.8463 20.4308 26.8463H20.9092C20.5118 27.0377 20.0776 27.2511 19.614 27.4816C17.8136 28.372 15.5766 29.4832 14.1122 29.8462C11.9046 30.3957 8.29644 30.4055 8.06832 30.4055H8.05606C7.98338 30.4053 7.91157 30.4213 7.84581 30.4522C7.78006 30.4832 7.72201 30.5284 7.67586 30.5845L4.49202 34.465C4.40973 34.5658 4.37086 34.6952 4.38397 34.8247C4.39708 34.9542 4.46109 35.0732 4.56193 35.1555C4.66276 35.2378 4.79216 35.2766 4.92165 35.2635C5.05114 35.2504 5.17012 35.1864 5.25241 35.0856L8.27682 31.3915C9.15495 31.3915 12.2578 31.3204 14.3379 30.8053C15.9102 30.4153 18.1963 29.2747 20.0384 28.3671C21.076 27.8545 21.9713 27.4105 22.555 27.1848C23.0064 27.0107 23.3939 26.8929 23.7373 26.7899C23.9556 26.7237 24.1641 26.6599 24.3579 26.5888C24.9883 26.3558 25.447 26.0393 25.5623 25.2471C25.6236 24.5833 25.5094 23.915 25.2311 23.3093C26.1289 23.037 27.5393 22.5145 27.8925 21.8376C28.4886 20.7019 27.7355 19.3994 27.2204 18.7101C27.711 18.4035 28.2972 17.8884 28.3414 17.2041C28.3708 16.5712 28.0225 15.2933 27.5074 14.5574C30.2865 13.5076 33.1073 12.3498 33.6764 11.8126C33.8792 11.6404 34.034 11.4187 34.126 11.169C34.218 10.9193 34.2439 10.6501 34.2013 10.3875ZM18.9468 25.7474C18.8097 25.69 18.6885 25.6002 18.5937 25.4858C18.4989 25.3713 18.4332 25.2355 18.4023 25.0901C18.3684 24.929 18.373 24.7623 18.4156 24.6033C18.4582 24.4443 18.5377 24.2977 18.6476 24.1751C18.7607 24.0382 18.9058 23.9312 19.0701 23.8636C19.2344 23.796 19.4128 23.7699 19.5895 23.7876C19.6164 23.7898 19.6435 23.7898 19.6705 23.7876C20.0775 23.8352 20.4871 23.8581 20.8969 23.8563C22.0212 23.8438 23.1426 23.7396 24.25 23.5448C24.4389 23.9446 24.667 24.5823 24.5909 25.1048C24.5517 25.3697 24.4756 25.4899 24.0832 25.6395C22.2877 25.8407 19.5257 26.0025 18.9468 25.7474ZM27.0144 21.3838C26.8647 21.6683 25.6506 22.1981 24.4119 22.5195C23.0015 22.7893 21.1299 22.9659 19.8201 22.8334H19.8054C19.7244 22.8187 19.6424 22.8105 19.5601 22.8089C18.8536 22.7034 18.3631 22.4998 18.2625 22.1613C18.1907 21.9849 18.1573 21.7953 18.1645 21.6049C18.1717 21.4146 18.2193 21.228 18.3042 21.0575C18.5135 20.7727 18.8212 20.576 19.1676 20.5056C19.2312 20.4947 19.2921 20.4714 19.3467 20.437C19.7931 20.437 20.2542 20.41 20.5878 20.3854C21.4831 20.3192 25.2017 19.4043 26.2859 19.1198C26.7249 19.6471 27.3823 20.6896 27.0144 21.3838ZM27.3529 17.1427C27.3333 17.4567 26.7347 17.8909 26.2883 18.1018C24.9024 18.455 21.2894 19.3454 20.5142 19.4018C19.5625 19.473 18.7212 19.4632 18.471 19.3822C18.3128 19.3402 18.1684 19.2577 18.0518 19.1429C17.9353 19.028 17.8506 18.8848 17.8063 18.7273C17.7523 18.4231 17.9632 18.0675 18.3974 17.729C19.1333 17.1599 21.0833 16.7307 21.7799 16.6105L21.8535 16.5908C22.5747 16.3456 24.4658 15.6784 26.5336 14.9106C26.8697 15.1436 27.3897 16.5516 27.3529 17.1427Z" fill="#2A2A2A"/>
<path d="M32.8523 23.1625C32.0764 23.1618 31.3324 22.8533 30.7838 22.3047C30.2351 21.756 29.9266 21.0121 29.926 20.2362C29.926 17.5773 32.3445 14.0476 32.4475 13.9004C32.4916 13.8368 32.5502 13.7845 32.6184 13.7478C32.6866 13.7111 32.7626 13.6911 32.84 13.6895C32.9161 13.6895 32.9913 13.7072 33.0594 13.7412C33.1275 13.7753 33.1868 13.8248 33.2324 13.8857C33.3355 14.023 35.7663 17.2903 35.7663 20.2386C35.765 21.012 35.4579 21.7535 34.9119 22.3012C34.366 22.849 33.6256 23.1586 32.8523 23.1625ZM32.867 15.068C32.1998 16.1571 30.9047 18.4873 30.9047 20.2386C30.9047 20.7545 31.1096 21.2493 31.4744 21.6141C31.8392 21.9788 32.3339 22.1838 32.8498 22.1838C33.3657 22.1838 33.8604 21.9788 34.2252 21.6141C34.59 21.2493 34.7949 20.7545 34.7949 20.2386C34.7974 18.2984 33.5366 16.0982 32.867 15.0655V15.068Z" fill="#2A2A2A"/>
</svg>
