<svg width="56" height="56" viewBox="0 0 56 56" fill="none" xmlns="http://www.w3.org/2000/svg">
<path d="M25.4802 24.436C22.312 24.436 19.7344 21.8584 19.7344 18.6903C19.7344 18.6137 19.7363 18.5351 19.74 18.4528C16.3675 18.0309 13.5527 15.6895 12.5285 12.429C12.5043 12.352 12.5183 12.2681 12.566 12.203C12.6138 12.1381 12.6897 12.0996 12.7704 12.0996H44.1038C44.1845 12.0996 44.2604 12.1381 44.3081 12.2031C44.3558 12.2682 44.3698 12.3521 44.3456 12.4291C43.3981 15.4447 40.9101 17.6949 37.8288 18.3371C37.2175 20.9019 34.8938 22.7461 32.2398 22.7461C31.4495 22.7461 30.6862 22.5888 29.9675 22.2784C28.8817 23.6331 27.2195 24.436 25.4802 24.436ZM13.1233 12.6066C14.1951 15.5769 16.8714 17.6693 20.0331 17.9754C20.1711 17.9887 20.2728 18.1105 20.2614 18.2486C20.2479 18.4103 20.2414 18.5547 20.2414 18.6903C20.2414 21.5789 22.5915 23.929 25.4802 23.929C27.153 23.929 28.6859 23.158 29.686 21.8135C29.7583 21.7164 29.8891 21.684 29.998 21.7358C30.7023 22.0698 31.4565 22.2391 32.2398 22.2391C34.7112 22.2391 36.8684 20.4854 37.3691 18.0691C37.3899 17.9686 37.4695 17.8905 37.5704 17.8715C40.429 17.3324 42.768 15.3295 43.7508 12.6066H13.1233Z" fill="#2A2A2A" stroke="#2A2A2A" stroke-width="0.694444"/>
<path d="M31.0533 19.3662C30.9133 19.3662 30.7998 19.2527 30.7998 19.1127C30.7998 18.9727 30.9133 18.8592 31.0533 18.8592C32.2895 18.8592 34.0085 16.728 34.1046 16.3767C34.133 16.2396 34.2669 16.1527 34.404 16.1812C34.541 16.2097 34.6288 16.3449 34.6004 16.4821C34.4937 16.9974 32.5681 19.3662 31.0533 19.3662Z" fill="#2A2A2A" stroke="#2A2A2A" stroke-width="0.434028"/>
<path d="M33.5072 38.5483C33.3672 38.5483 33.2537 38.4349 33.2537 38.2948C33.2537 37.5376 31.9216 36.452 31.6777 36.3634C31.5448 36.3319 31.4603 36.2 31.4882 36.0655C31.5167 35.9285 31.6505 35.8399 31.7879 35.8687C32.1511 35.944 33.7607 37.2333 33.7607 38.2949C33.7607 38.4349 33.6472 38.5483 33.5072 38.5483Z" fill="#2A2A2A" stroke="#2A2A2A" stroke-width="0.434028"/>
<path d="M47.8715 12.6068H9.00349C8.86348 12.6068 8.75 12.4933 8.75 12.3533V8.12849C8.75 7.98848 8.86348 7.875 9.00349 7.875H47.8715C48.0115 7.875 48.125 7.98848 48.125 8.12849V12.3533C48.125 12.4933 48.0115 12.6068 47.8715 12.6068ZM9.25697 12.0998H47.618V8.38197H9.25697V12.0998Z" fill="#2A2A2A" stroke="#2A2A2A" stroke-width="0.694444"/>
<path d="M44.1036 43.0259H12.7703C12.6896 43.0259 12.6137 42.9875 12.566 42.9224C12.5183 42.8573 12.5043 42.7734 12.5285 42.6964C13.5527 39.4359 16.3675 37.0945 19.74 36.6726C19.7363 36.5904 19.7344 36.5117 19.7344 36.4352C19.7344 33.267 22.312 30.6895 25.4802 30.6895C27.2195 30.6895 28.8817 31.4923 29.9675 32.847C30.6859 32.5366 31.4494 32.3795 32.2397 32.3795C34.8937 32.3795 37.2174 34.2237 37.8288 36.7885C40.9098 37.4309 43.3981 39.681 44.3455 42.6965C44.3697 42.7734 44.3557 42.8573 44.308 42.9225C44.2603 42.9875 44.1843 43.0259 44.1036 43.0259ZM13.1232 42.5189H43.7506C42.7678 39.796 40.4288 37.793 37.5702 37.254C37.4693 37.2349 37.3897 37.1569 37.3689 37.0563C36.8683 34.6401 34.7111 32.8864 32.2397 32.8864C31.4563 32.8864 30.7021 33.0558 29.9981 33.3897C29.8887 33.4414 29.7583 33.4089 29.686 33.3119C28.6859 31.9675 27.1529 31.1965 25.4801 31.1965C22.5914 31.1965 20.2413 33.5466 20.2413 36.4352C20.2413 36.5708 20.2478 36.7152 20.2613 36.8769C20.2728 37.0151 20.1711 37.1368 20.0331 37.1502C16.8714 37.4562 14.195 39.5486 13.1232 42.5189Z" fill="#2A2A2A" stroke="#2A2A2A" stroke-width="0.694444"/>
<path d="M47.8715 47.2493H9.00349C8.86348 47.2493 8.75 47.1359 8.75 46.9958V42.7711C8.75 42.6311 8.86348 42.5176 9.00349 42.5176H47.8715C48.0115 42.5176 48.125 42.6311 48.125 42.7711V46.9958C48.125 47.1359 48.0115 47.2493 47.8715 47.2493ZM9.25697 46.7424H47.618V43.0246H9.25697V46.7424Z" fill="#2A2A2A" stroke="#2A2A2A" stroke-width="0.694444"/>
</svg>
