<svg width="56" height="56" viewBox="0 0 56 56" fill="none" xmlns="http://www.w3.org/2000/svg">
<path d="M47.8715 12.6068H9.00349C8.86348 12.6068 8.75 12.4933 8.75 12.3533V8.12849C8.75 7.98848 8.86348 7.875 9.00349 7.875H47.8715C48.0115 7.875 48.125 7.98848 48.125 8.12849V12.3533C48.125 12.4933 48.0115 12.6068 47.8715 12.6068ZM9.25697 12.0998H47.618V8.38197H9.25697V12.0998Z" fill="#2A2A2A" stroke="#2A2A2A" stroke-width="0.694444"/>
<path d="M12.6875 12.6875C14.4375 13.7083 19.1625 15.75 24.0625 15.75C28.9625 15.75 33.5417 13.7083 34.5625 12.6875" stroke="#2A2A2A" stroke-width="1.04167" stroke-linecap="round"/>
<path d="M47.8715 47.2493H9.00349C8.86348 47.2493 8.75 47.1359 8.75 46.9958V42.7711C8.75 42.6311 8.86348 42.5176 9.00349 42.5176H47.8715C48.0115 42.5176 48.125 42.6311 48.125 42.7711V46.9958C48.125 47.1359 48.0115 47.2493 47.8715 47.2493ZM9.25697 46.7424H47.618V43.0246H9.25697V46.7424Z" fill="#2A2A2A" stroke="#2A2A2A" stroke-width="0.694444"/>
<circle cx="25.375" cy="25.375" r="2.625" stroke="#2A2A2A" stroke-width="1.04167"/>
<circle cx="40.25" cy="20.125" r="2.625" stroke="#2A2A2A" stroke-width="1.04167"/>
<circle cx="40.25" cy="35.875" r="2.625" stroke="#2A2A2A" stroke-width="1.04167"/>
<circle cx="31.5" cy="30.625" r="2.625" stroke="#2A2A2A" stroke-width="1.04167"/>
<circle cx="21.875" cy="38.5" r="2.625" stroke="#2A2A2A" stroke-width="1.04167"/>
<ellipse cx="14.875" cy="28" rx="2.625" ry="2.625" stroke="#2A2A2A" stroke-width="1.04167"/>
</svg>
